<?xml version="1.0" encoding="UTF-8"?>
<svg id="Logo_Blanco" data-name="Logo Blanco" xmlns="http://www.w3.org/2000/svg" xmlns:xlink="http://www.w3.org/1999/xlink" viewBox="0 0 954 768">
  <defs>
    <style>
      .cls-1 {
        fill: url(#Degradado_sin_nombre_5);
      }

      .cls-2 {
        fill: url(#Degradado_sin_nombre_5-9);
      }

      .cls-3 {
        font-size: 77.23px;
      }

      .cls-3, .cls-4, .cls-5, .cls-6 {
        fill: #fff;
      }

      .cls-3, .cls-5, .cls-6 {
        font-family: AngelicaMayaRegular, 'Angelica Maya';
      }

      .cls-7 {
        fill: url(#Degradado_sin_nombre_5-8);
      }

      .cls-8 {
        fill: url(#Degradado_sin_nombre_5-3);
      }

      .cls-9 {
        fill: url(#Degradado_sin_nombre_5-11);
      }

      .cls-10 {
        fill: url(#Degradado_sin_nombre_5-5);
      }

      .cls-11 {
        fill: url(#Degradado_sin_nombre_5-10);
      }

      .cls-5 {
        font-size: 80.04px;
      }

      .cls-12 {
        fill: url(#Degradado_sin_nombre_5-2);
      }

      .cls-6 {
        font-size: 77.01px;
      }

      .cls-13 {
        fill: url(#Degradado_sin_nombre_5-6);
      }

      .cls-14 {
        fill: url(#Degradado_sin_nombre_5-4);
      }

      .cls-15 {
        fill: url(#Degradado_sin_nombre_5-7);
      }
    </style>
    <linearGradient id="Degradado_sin_nombre_5" data-name="Degradado sin nombre 5" x1="212.52" y1="398.09" x2="589.08" y2="398.09" gradientUnits="userSpaceOnUse">
      <stop offset="0" stop-color="#690d11"/>
      <stop offset="1" stop-color="#d21d25"/>
    </linearGradient>
    <linearGradient id="Degradado_sin_nombre_5-2" data-name="Degradado sin nombre 5" x1="212" y1="398.09" x2="589.58" y2="398.09" xlink:href="#Degradado_sin_nombre_5"/>
    <linearGradient id="Degradado_sin_nombre_5-3" data-name="Degradado sin nombre 5" x1="170.05" y1="479.96" x2="412.97" y2="479.96" xlink:href="#Degradado_sin_nombre_5"/>
    <linearGradient id="Degradado_sin_nombre_5-4" data-name="Degradado sin nombre 5" x1="157.43" y1="298.3" x2="393.53" y2="298.3" xlink:href="#Degradado_sin_nombre_5"/>
    <linearGradient id="Degradado_sin_nombre_5-5" data-name="Degradado sin nombre 5" x1="379.39" y1="368.87" x2="634.04" y2="368.87" xlink:href="#Degradado_sin_nombre_5"/>
    <linearGradient id="Degradado_sin_nombre_5-6" data-name="Degradado sin nombre 5" x1="487.58" y1="170.59" x2="707.33" y2="170.59" xlink:href="#Degradado_sin_nombre_5"/>
    <linearGradient id="Degradado_sin_nombre_5-7" data-name="Degradado sin nombre 5" x1="443.5" y1="435.38" x2="829.25" y2="435.38" xlink:href="#Degradado_sin_nombre_5"/>
    <linearGradient id="Degradado_sin_nombre_5-8" data-name="Degradado sin nombre 5" x1="492.24" y1="146.55" x2="575.58" y2="146.55" xlink:href="#Degradado_sin_nombre_5"/>
    <linearGradient id="Degradado_sin_nombre_5-9" data-name="Degradado sin nombre 5" x1="608.5" y1="192.5" x2="634.5" y2="192.5" xlink:href="#Degradado_sin_nombre_5"/>
    <linearGradient id="Degradado_sin_nombre_5-10" data-name="Degradado sin nombre 5" x1="637.5" y1="217" x2="656.5" y2="217" xlink:href="#Degradado_sin_nombre_5"/>
    <linearGradient id="Degradado_sin_nombre_5-11" data-name="Degradado sin nombre 5" x1="658.5" y1="237.5" x2="670.5" y2="237.5" xlink:href="#Degradado_sin_nombre_5"/>
  </defs>
  <path class="cls-1" d="M588.69,397.5c4.01,60.74-22.87,132.37-79.58,168-49.31,30.98-106.53,25.56-128.32,23.5-15.91-1.51-43.53-4.12-69.63-17.5-71.44-36.62-125.41-150.74-84.55-249,24.87-59.8,83.63-110.79,154.18-116.5,107.2-8.68,201.22,90.46,207.89,191.5Z"/>
  <path class="cls-12" d="M411.99,591.2c-13.23,0-24.15-1.04-31.24-1.71-16.32-1.55-43.62-4.13-69.81-17.55-35.69-18.29-67.33-56.29-84.63-101.65-19.03-49.9-19.09-102.45-.16-147.99,12.53-30.14,33.88-58.11,60.11-78.74,28.21-22.19,60.88-35.35,94.49-38.07,46.83-3.79,94.29,12.93,133.64,47.07,43.32,37.59,71.28,91.76,74.79,144.89,2.05,31.02-4.01,64.28-17.06,93.65-14.26,32.11-35.96,57.97-62.75,74.8-33.27,20.9-70.19,25.28-97.39,25.28ZM393.84,205.97c-4.34,0-8.67.17-13,.52-65.27,5.28-127.06,51.98-153.76,116.19-18.83,45.3-18.78,97.59.17,147.25,17.22,45.13,48.68,82.93,84.15,101.12,26.02,13.33,53.2,15.91,69.45,17.45,21.57,2.04,78.84,7.47,128.01-23.43,59.97-37.68,83.06-111.3,79.34-167.54-3.49-52.87-31.32-106.78-74.45-144.2-35.51-30.81-77.64-47.36-119.91-47.36Z"/>
  <path class="cls-8" d="M200.15,345.22c-4.62,16.27-21.6,82.97,13.15,150.36,5.63,10.91,28.24,53.44,75.2,79.92,13.89,7.83,26.41,12.28,35.83,15.63,51.16,18.19,88.67,15.77,88.64,16.94-.03,1.06-81.52,23.09-153.97-19.56-18.48-10.87-75.8-49.17-87.07-122.19-9.51-61.6,19.91-108.71,28.23-121.11Z"/>
  <path class="cls-14" d="M393.53,190.33c-25.55.89-76.12,6.31-126.59,38.8-37.49,24.13-58.58,52.67-64.12,60.46-6.37,8.94-19.8,29.33-29.67,57.48-13.85,39.48-11.97,67.52-13.56,67.38-.93-.08-9.29-59.52,14.73-120.17,5.81-14.68,15.77-39.11,39.24-62.49,30.78-30.68,65.35-40.18,78.83-43.71,45.57-11.92,83.81-2.99,101.15,2.26Z"/>
  <path class="cls-10" d="M379.39,587.53c1.25,1.42,19.37,3.68,38.26,3.47,71.2-.75,118.1-29.19,144.9-52.91,32.16-28.47,70.67-81.2,71.45-170.76.19-22.03.64-73.61-33.72-119.79-13.06-17.54-29.3-39.37-56.44-47.56-39.64-11.97-58.41-13.96-58.59-13.98l-1.13-.11c-7.79-.77-19.56-1.93-24.12-10.14-3.79-6.83-.41-14.59-.02-15.45,3.25-7.06,10.98-11.49,19.57-11.55-6.67-1.96-21.21-4.74-31.73,4.14-7.08,5.98-11.19,16.3-9.78,24.53,2.16,12.59,16.71,16.71,35.12,21.94,17.32,4.91,38.87,11.03,56.23,26.5,38.89,34.66,42.51,90.23,44.9,127l.03.43c1.41,21.69,5.71,87.68-35.89,149.42-15.12,22.45-40.43,60.02-84.83,72.26-23.07,6.36-46.08,8.86-59.82,10.35-7.25.79-13.54,1.47-14.39,2.21Z"/>
  <path class="cls-13" d="M487.87,136.34c-1.52-1.08,3-12.59,11.63-22.84,0,0,12.68-15.07,32-22,38.47-13.8,114.81,24.49,151.2,88.47,19.62,34.5,25.3,72.48,24.57,72.53-1.49.1-2.84-7.13-8.72-18.01-2.8-4.48-6.97-10.87-12.46-18.22-19.87-26.59-39.82-42.75-58.59-57.77-23.85-19.08-39.01-27.38-46-31-12.58-6.52-20.73-9.27-28-11-11.04-2.62-24.36-5.79-38-1-17.76,6.23-25.63,22.25-27.63,20.84Z"/>
  <path class="cls-15" d="M443.5,610.5c-.29-1.77,37.04-4.5,78-24,40.34-19.21,64.86-45.79,70-50.93,0,0,61.29-66.87,60.06-170.21-.02-1.36-.04-2.43-.06-3.18-1.34-57.97-22.19-89.52-7-100.81,14.03-10.43,32.94,15.69,104,37.3,33.9,10.31,52.88,11.45,67,30.24,9.58,12.76,19.28,36.79,10,49.4-19.55,26.56-102.34-26.06-134,6.05-11.85,12.02-6.06,24.11-10,51.41-11.53,79.99-91.98,144.48-162,166.06-39.82,12.27-75.72,10.4-76,8.67Z"/>
  <path class="cls-7" d="M501.23,135.38c-.8.52-10.03,6.62-8.89,12,1.05,4.97,10.39,6.54,19.43,8.11,39.75,6.9,59.62,10.34,63.06,5.21,3.76-5.61-7.19-17.58-18.29-23.35-4.75-2.46-8.81-3.46-13.02-4.45-8.36-1.97-28.2-6.65-42.28,2.48Z"/>
  <circle class="cls-2" cx="621.5" cy="192.5" r="13"/>
  <circle class="cls-11" cx="647" cy="217" r="9.5"/>
  <circle class="cls-9" cx="664.5" cy="237.5" r="6"/>
  <text class="cls-5" transform="translate(345.27 541.45) scale(.99 .58)"><tspan x="0" y="0">viajes</tspan></text>
  <text class="cls-3" transform="translate(488.26 540.07) scale(.8 .58)"><tspan x="0" y="0">~</tspan></text>
  <text class="cls-6" transform="translate(302.59 535.12) scale(1 .58)"><tspan x="0" y="0">~</tspan></text>
  <path class="cls-4" d="M464.13,479.55v-24.56l-19.28-.22c-10.61,0-25.99-.22-34.18-.22h-14.9l.26-4.66c0-2.56.26-6.73.26-9.25v-4.59l-3.48-.49c-11.18-1.54-18.85-4.81-23.93-10.19-6.06-6.42-8.17-15.93-5.98-26.89,2.2-11.01,9.12-18.09,20.83-21.3,5.55-1.52,8.93-1.94,15.7-1.92,5.03.02,6.32.22,8.49.62,7.36,1.68,11.78,5.09,13.91,10.72,3.21,8.47,1.1,15.94-6.21,22.06-2.3,1.92-5.96,4.24-8.85,5.6l-1.78.84-3.99-4.77c-2.2-2.62-4.1-4.93-4.23-5.12-.26-.24.42-.62,2.09-1.28,6.35-2.51,10.29-6.29,10.29-9.86,0-1.81-.58-2.84-2.28-4.15-2.99-2.28-7.7-2.79-13.6-1.48-7.81,1.74-12.09,5.2-14.08,11.4-.58,1.83-.71,2.93-.71,7.16-.02,4.67,0,5.11.73,6.62,1.05,2.21,2.07,3.51,3.93,5.05,3.29,2.7,11.57,5.28,16.02,4.99,1.18,0,3.66-.57,5.56-1.1,12.73-3.59,21.68-10.98,27.27-22.52l1.39-2.89v-7.64c0-5.83,0-8.14-.49-9.73-2.51-10.52-9.38-17.49-19.55-19.82-3.43-.79-9.98-.84-13.93-.22-5.42.99-11.32,3.08-16.7,5.93l-2.76,1.46-.26-6.65-.26-6.65,2.09-1.68c3.1-2.47,7.33-4.11,12.41-4.8l1.15-.22.26-25.32c0-13.93.26-25.36,0-25.41-.26-.22-3.19,1.72-7.37,4.53-10.9,7.29-20.72,17.69-27.58,29.21-7.04,11.84-12.74,27.75-15.74,43.94-.31,1.68-.6,3-.65,2.96,0,0-.6-2.4-1.2-5.23-6.61-30.38-20.62-53.77-41.92-70-4.23-3.22-7.26-5.32-7.44-5.16,0,0-.26,39.79-.34,88.31-.26,48.51-.31,92.45-.44,97.65l-.26,9.44-7.05,3.8c-3.88,2.1-7.59,4.08-8.25,4.42l-1.2.62v-114.03c0-77.89,0-114.03.34-114.03.26,0,1.94.64,3.93,1.41,25.89,10.19,45.74,27.65,62.8,55.24l2.38,3.83.92-1.81c.5-.99,2.04-3.69,3.39-5.99,12.36-20.95,33.05-41.02,51.11-49.62,2.54-1.21,7.06-2.87,8.94-3.3l1.26-.29v75.46l3.1.33c9.19.97,17.95,4.55,23.47,9.57,3.77,3.44,7.11,8.43,9.17,13.75,2.3,5.91,2.2,4.56,2.3,33.6v26.16l-6.72,2.27c-3.7,1.26-6.81,2.27-6.91,2.27,0,0-.44-3.5-.76-7.77-.31-4.27-.6-7.79-.63-7.83,0,0-.92.9-1.94,2.12-2.43,2.81-7.38,6.79-10.78,8.69-1.49.82-4.09,2.07-5.8,2.8l-3.12,1.3.26,2.44c0,1.35.26,2.61.31,2.82,0,.33,3.76.35,25.04.22,13.69,0,24.93-.22,24.97-.24,0,0,0-17.38-.26-38.55l-.31-38.49-.84-1.76c-1.36-2.87-6.27-10.99-8.57-14.18-7.59-10.52-17.81-19.49-27.76-24.37-1.39-.68-2.54-1.3-2.54-1.37,0-.35,4.28-11.56,4.49-11.76.29-.26,6.46,3.08,11.33,6.14,7.43,4.69,14.66,10.44,19.55,15.56,5.34,5.59,10.99,13.85,13.22,19.32.47,1.19.97,2.25,1.1,2.37,0,.22.68-.86,1.28-2.16.58-1.3,2.07-4.02,3.27-6.05,7.13-11.9,17.79-21.72,32.57-30.04,2.43-1.37,5.02-2.76,5.75-3.1l1.33-.62,4.18,5.27c2.3,2.9,4.18,5.32,4.18,5.38,0,0-1.54.84-3.46,1.74-19.59,9.24-31.94,20.87-37.73,35.51l-1.47,3.71-.26,6.01c0,3.3-.26,20.64-.29,38.53l-.26,32.52h40.03c22.01,0,40.13-.22,40.25-.29,0,0-6.39-14.79-14.48-32.64-9.47-20.9-14.8-32.31-14.98-32.09-.26.22-5.21,10.38-11.25,22.64l-10.98,22.29,14.98.22,14.98.22-3.57,5.73-3.57,5.73h-23.34c-12.83.01-23.28,0-23.21-.21,0,0,10.48-20.29,23.14-44.85,12.66-24.56,23.1-44.64,23.21-44.64,0,0,13.01,25.62,28.69,56.94,15.67,31.31,28.57,57.04,28.66,57.18,0,.22-21.88.22-54.54,0l-54.7-.22v33.7l-8.04,7.15c-4.43,3.93-8.18,7.19-8.34,7.23-.26,0-.29-10.1-.29-24.47l.03.02Z"/>
</svg>