<svg width="488" height="30" viewBox="0 0 488 30" fill="none" xmlns="http://www.w3.org/2000/svg">
<path d="M458.921 14.6804C458.252 14.7065 457.577 14.7251 456.922 14.7632C456.497 14.787 456.313 14.7215 456.029 14.6878C455.934 14.6761 455.832 14.6524 455.744 14.6557C455.082 14.6817 454.421 14.7108 453.759 14.7399C453.557 14.7991 453.43 14.8775 453.12 14.907C452.816 14.935 452.458 14.9361 452.121 14.9506C451.675 14.9685 451.229 14.9864 450.783 15.0028C450.561 15.011 450.379 15.0401 450.305 15.0944C450.292 15.1034 450.441 15.1255 450.522 15.1388C450.793 15.183 451.058 15.2332 451.356 15.2668C451.64 15.299 451.991 15.2439 452.296 15.285C452.98 15.3775 452.987 15.376 453.507 15.3563C453.952 15.3384 454.398 15.3191 454.844 15.3057C454.932 15.3024 455.033 15.3246 455.128 15.3363C455.413 15.3685 455.597 15.443 456.015 15.4132C456.332 15.3897 456.684 15.3841 457.014 15.3711C457.292 15.4138 457.55 15.4625 457.848 15.4962C458.126 15.5283 458.207 15.5536 458.059 15.5976C457.925 15.6386 457.736 15.6557 457.486 15.6595C457.263 15.6617 457.04 15.6758 456.817 15.684C456.703 15.6889 456.595 15.6922 456.487 15.6971C456.061 15.7149 456.061 15.7149 455.282 15.6212C454.977 15.5846 454.634 15.6382 454.343 15.6031C454.146 15.5796 453.976 15.5441 453.787 15.5192C453.705 15.5089 453.577 15.5078 453.476 15.5111C453.138 15.5227 452.8 15.5312 452.476 15.5517C452.247 15.566 452.112 15.6084 452.14 15.6504C452.147 15.6669 452.31 15.6904 452.404 15.6916C452.621 15.694 452.85 15.6722 453.06 15.6821C453.263 15.692 453.473 15.7214 453.622 15.7539C453.928 15.8221 454.271 15.7595 454.562 15.7766C454.866 15.7952 455.117 15.8545 455.409 15.8896C455.483 15.8984 455.625 15.8829 455.74 15.8781C456.071 15.8665 456.402 15.8565 456.733 15.845C457.011 15.8877 457.309 15.9258 457.56 15.9746C458.014 16.0633 458.501 16.0963 459.088 16.051C459.419 16.0259 459.743 16.0339 460.008 16.0917C460.279 16.1509 460.59 16.144 460.935 16.1309C461.252 16.1179 461.576 16.0839 461.901 16.1249C462.605 16.2159 462.612 16.2203 463.443 16.1818C463.693 16.1705 463.882 16.1669 464.072 16.2008C464.248 16.2318 464.438 16.2583 464.621 16.2877C464.952 16.2762 465.289 16.2647 465.62 16.2516C466.046 16.2338 466.283 16.2541 466.385 16.3379C466.447 16.3887 466.475 16.4352 466.624 16.4693C466.801 16.5108 466.99 16.5087 467.247 16.4959C467.49 16.4846 467.665 16.4676 467.766 16.4132C467.806 16.3906 467.886 16.3693 467.96 16.3511C468.021 16.3374 468.115 16.316 468.169 16.3189C468.271 16.3246 468.406 16.3407 468.44 16.3601C468.775 16.5408 468.775 16.5423 469.114 16.5938C469.487 16.6512 469.873 16.7026 470.212 16.7676C470.517 16.8252 470.821 16.7988 471.152 16.7978C471.402 16.797 471.565 16.8355 471.545 16.8746C471.532 16.8972 471.438 16.9305 471.357 16.9338C470.695 16.9658 470.027 16.9934 469.358 17.0165C469.277 17.0198 469.175 16.993 469.08 16.9798C468.891 16.9534 468.721 16.9118 468.518 16.9035C468.315 16.8951 468.079 16.9183 467.856 16.9265C467.633 16.9347 467.397 16.955 467.194 16.9436C466.991 16.9322 466.828 16.8891 466.639 16.8612C466.55 16.848 466.428 16.8288 466.354 16.8335C465.862 16.8711 465.496 16.8227 465.143 16.7577C465.068 16.7444 464.94 16.7358 464.845 16.7391C464.062 16.767 463.285 16.7994 462.502 16.8304C462.185 16.8434 461.927 16.7916 461.858 16.7032C461.823 16.6538 461.754 16.6044 461.753 16.5549C461.752 16.4648 461.379 16.4164 461.109 16.4277C460.663 16.4441 460.211 16.4575 459.772 16.4814C459.414 16.5005 459.11 16.4834 458.865 16.4301C458.58 16.3694 458.256 16.3824 457.932 16.3999C457.689 16.4127 457.622 16.4624 457.638 16.587C457.654 16.6876 457.539 16.7195 457.1 16.7374C456.547 16.7601 455.986 16.7828 455.426 16.8011C455.338 16.8044 455.236 16.7791 455.148 16.7659C454.958 16.7395 454.788 16.6964 454.586 16.688C454.383 16.6781 454.146 16.7014 453.924 16.7111C453.701 16.7193 453.465 16.741 453.262 16.7312C453.059 16.7213 452.889 16.6767 452.706 16.6488C452.618 16.6355 452.509 16.6163 452.422 16.6196C451.976 16.633 451.53 16.6524 451.085 16.6703C450.585 16.6898 450.585 16.6898 449.873 16.5989C449.548 16.5579 449.225 16.5919 448.907 16.6049C448.57 16.618 448.252 16.6249 447.987 16.5657C447.811 16.5272 447.615 16.5038 447.405 16.5119C446.845 16.5317 446.291 16.5559 445.73 16.5756C445.636 16.5789 445.507 16.5718 445.433 16.5585C445.073 16.4966 444.721 16.4481 444.222 16.4812C443.79 16.5095 443.323 16.5124 442.891 16.5393C442.655 16.5535 442.548 16.6019 442.596 16.6393C442.623 16.6588 442.766 16.6809 442.86 16.6806C443.076 16.6814 443.312 16.6581 443.515 16.6665C443.935 16.6833 444.147 16.8087 444.693 16.7725C445.017 16.7505 445.355 16.742 445.693 16.7349C445.781 16.7331 445.876 16.7614 445.971 16.7761C446.242 16.8158 446.479 16.8676 446.871 16.8394C447.195 16.8174 447.539 16.8103 447.87 16.7973C448.397 16.7762 448.397 16.7777 449.081 16.8672C449.406 16.9097 449.73 16.8742 450.047 16.8627C450.284 16.8545 450.506 16.8387 450.696 16.8592C450.987 16.8898 451.198 16.9612 451.556 16.9556C451.894 16.9501 452.225 16.9281 452.562 16.9195C452.772 16.9144 452.968 16.9378 453.138 16.9778C453.314 17.0178 453.504 17.0352 453.733 17.0255C454.064 17.0125 454.402 16.9964 454.74 16.9879C454.834 16.9861 454.943 16.9993 455.031 17.011C455.221 17.0375 455.404 17.0684 455.586 17.0964C455.917 17.0864 456.255 17.0824 456.579 17.0633C456.829 17.0491 457.005 17.0545 457.208 17.0839C457.466 17.1237 457.677 17.1951 458.095 17.1593C458.304 17.1421 458.548 17.1459 458.757 17.1302C459.013 17.1099 459.189 17.1169 459.372 17.1614C459.719 17.2459 460.151 17.2461 460.596 17.2117C461.082 17.1741 461.448 17.2151 461.814 17.28C462.201 17.3479 462.201 17.3464 462.501 17.5121C462.59 17.5599 462.84 17.5817 463.05 17.572C463.401 17.5559 463.705 17.5625 463.963 17.6188C464.234 17.6795 464.558 17.671 464.889 17.6535C465.328 17.6296 465.767 17.6087 466.127 17.6947C466.303 17.7362 466.493 17.7461 466.729 17.7349C467.398 17.7058 468.073 17.6872 468.728 17.6522C469.126 17.6299 469.357 17.6773 469.628 17.717C469.994 17.7714 470.394 17.8197 470.396 17.9384C470.396 17.9579 470.491 17.9801 470.572 17.9949C470.749 18.0259 470.939 18.0523 471.122 18.0818C471.393 18.126 471.657 18.1627 472.028 18.1376C472.352 18.1171 472.697 18.11 473.027 18.0955C473.358 18.0809 473.662 18.0725 473.961 18.1286C474.307 18.1921 474.673 18.2526 475.065 18.2994C475.343 18.3331 475.707 18.2734 476.005 18.3191C476.188 18.347 476.364 18.3795 476.561 18.4029C476.642 18.4132 476.771 18.4053 476.879 18.402C477.102 18.3953 477.331 18.3901 477.547 18.3744C477.797 18.3571 477.986 18.3595 478.176 18.3935C478.352 18.4245 478.529 18.4675 478.732 18.4759C479.036 18.4884 479.373 18.4273 479.678 18.4955C479.834 18.5295 480.031 18.562 480.234 18.5719C480.437 18.5817 480.673 18.5585 480.889 18.5593C480.984 18.559 481.099 18.5827 481.153 18.6021C481.187 18.6125 481.141 18.6411 481.094 18.6563C481.033 18.6745 480.946 18.6988 480.858 18.7021C480.189 18.7312 479.521 18.7558 478.852 18.7833C478.454 18.7996 478.454 18.7996 477.648 18.7075C477.458 18.6855 477.249 18.6907 477.013 18.7019C476.695 18.7164 476.371 18.7429 476.04 18.7169C475.605 18.6161 475.071 18.6088 474.504 18.6495C474.268 18.6668 474.052 18.6675 473.876 18.6395C473.503 18.5836 473.11 18.5322 472.778 18.4657C472.52 18.4139 472.398 18.4098 472.291 18.4822C472.258 18.5048 472.225 18.5289 472.232 18.5499C472.274 18.6249 472.349 18.6982 472.391 18.7732C472.405 18.7942 472.352 18.8184 472.318 18.841C472.211 18.9044 472.069 18.9003 471.832 18.8485C471.594 18.7967 471.31 18.763 470.932 18.7882C470.608 18.8102 470.256 18.8083 469.932 18.8318C469.433 18.8664 469.081 18.8194 468.721 18.7559C468.647 18.7427 468.518 18.7355 468.424 18.7388C467.417 18.7765 466.418 18.8186 465.412 18.8562C465.196 18.8644 464.999 18.8425 464.829 18.8025C464.653 18.7625 464.457 18.742 464.24 18.7502C463.349 18.7845 462.458 18.8158 461.566 18.8576C461.202 18.8752 460.911 18.8565 460.66 18.8048C460.47 18.7663 460.294 18.7548 460.057 18.7601C459.801 18.7654 459.619 18.7809 459.491 18.8249C459.37 18.8673 459.458 18.8926 459.729 18.9248C460.021 18.9599 460.292 19.0056 460.57 19.0468C460.792 19.0401 461.015 19.0274 461.232 19.0283C461.326 19.028 461.415 19.0547 461.51 19.0695C461.781 19.1122 462.031 19.155 462.416 19.1297C462.74 19.1077 463.085 19.1022 463.416 19.0876C463.875 19.0697 463.875 19.0697 464.62 19.162C464.81 19.1855 465.012 19.1833 465.255 19.1691C465.464 19.1579 465.681 19.1783 465.831 19.2228C465.892 19.2407 465.872 19.2708 465.746 19.3703C465.747 19.4439 465.888 19.4104 465.935 19.3622C466.008 19.2929 465.865 19.2708 465.596 19.3092C465.407 19.3368 465.313 19.3761 465.361 19.4075C465.388 19.4239 465.517 19.4446 465.746 19.3703C466.339 19.2784 466.791 19.2664 467.223 19.2411C467.48 19.2268 467.642 19.2323 467.846 19.2707C468.09 19.3165 468.334 19.3653 468.732 19.3401C469.164 19.3117 469.624 19.3073 470.062 19.2834C470.467 19.2611 470.678 19.3266 470.936 19.3648C471.247 19.4104 471.591 19.3568 471.875 19.383C472.173 19.4091 472.384 19.4745 472.729 19.4854C473.228 19.4434 473.547 19.5175 473.927 19.5659C474.225 19.6025 474.575 19.5684 474.893 19.5509C475.25 19.5317 475.548 19.5474 475.799 19.6007C476.084 19.6613 476.402 19.6469 476.726 19.6323C477.482 19.6 477.509 19.5954 477.95 19.6766C478.268 19.7357 478.572 19.7078 478.89 19.6993C479.167 19.739 479.438 19.7817 479.73 19.8168C479.804 19.8256 479.946 19.8101 480.061 19.8053C480.392 19.7923 480.729 19.7792 481.06 19.7662C481.283 19.758 481.519 19.7347 481.722 19.7431C481.925 19.753 482.095 19.796 482.278 19.824C482.461 19.852 482.65 19.8799 482.827 19.9094C483.098 19.9536 483.355 19.9904 483.733 19.9667C484.057 19.9462 484.395 19.9391 484.733 19.9246C485.158 19.9067 485.145 19.9113 485.937 19.999C486.364 20.0472 486.802 19.9858 487.234 19.9784C487.45 19.9748 487.66 19.9906 487.81 20.0337C487.871 20.0516 487.851 20.0817 487.872 20.1071C486.758 20.1511 485.636 20.1891 484.536 20.242C484.11 20.2629 483.886 20.2095 483.656 20.1651C483.276 20.0942 482.778 20.2009 482.418 20.1089C482.201 20.054 481.889 20.0234 481.518 20.0516C481.302 20.0673 481.072 20.0665 480.85 20.0807C480.283 20.1154 479.762 20.1186 479.308 20.0163C479.151 19.9808 478.928 19.9619 478.765 19.9279C478.575 19.891 478.393 19.8705 478.17 19.8787C477.163 19.9178 476.164 19.9569 475.165 19.999C475.077 20.0023 474.989 20.0251 474.915 20.0419C474.727 20.0845 474.788 20.1173 475.093 20.1434C475.194 20.1521 475.276 20.1714 475.371 20.1861C475.554 20.2141 475.723 20.2586 475.926 20.2685C476.129 20.2784 476.366 20.2567 476.588 20.2485C476.811 20.2403 477.047 20.217 477.25 20.2254C477.453 20.2353 477.623 20.2783 477.813 20.3048C477.901 20.318 478.009 20.3402 478.097 20.3384C478.543 20.328 478.982 20.3102 479.428 20.2953C479.706 20.335 479.943 20.3928 480.275 20.4053C480.484 20.4137 480.707 20.3965 480.923 20.3988C481.018 20.4 481.14 20.4222 481.187 20.4415C481.215 20.4535 481.127 20.4838 481.06 20.499C480.804 20.5569 480.453 20.5474 480.136 20.5664C479.791 20.587 479.48 20.5819 479.216 20.5242C479.039 20.4857 478.843 20.4653 478.627 20.4735C478.066 20.4947 477.512 20.5189 476.952 20.5372C476.857 20.5405 476.742 20.5273 476.654 20.5171C475.943 20.4276 475.943 20.4246 475.443 20.4457C474.707 20.4765 474.707 20.4765 474.212 20.3984C474.117 20.3837 474.015 20.3555 473.934 20.3572C473.151 20.3837 472.374 20.4101 471.598 20.447C471.341 20.4583 471.166 20.4589 470.976 20.4204C470.813 20.3879 470.623 20.3509 470.42 20.3425C470.21 20.3342 469.981 20.3574 469.758 20.3656C469.535 20.3738 469.299 20.394 469.103 20.3826C468.9 20.3712 468.723 20.3297 468.547 20.3002C468.364 20.2693 468.168 20.2713 467.918 20.2841C467.149 20.321 467.142 20.3166 466.376 20.2258C466.288 20.2156 466.173 20.2039 466.079 20.2072C465.518 20.227 464.964 20.2512 464.404 20.2709C464.188 20.2791 463.978 20.2602 463.828 20.2171C463.767 20.1993 463.787 20.1692 463.745 20.1108C463.698 20.0974 463.752 20.1213 463.766 20.1437C463.868 20.1404 463.989 20.143 464.063 20.1308C464.252 20.1017 464.346 20.0639 464.298 20.0325C464.271 20.016 464.142 19.9954 464.061 19.9957C463.912 19.9961 463.784 20.0295 463.745 20.1108C463.321 20.1616 462.868 20.1735 462.429 20.1989C462.173 20.2147 462.01 20.2077 461.807 20.1693C461.563 20.122 461.312 20.0762 460.913 20.1015C460.482 20.1298 460.022 20.1357 459.576 20.1581C459.063 20.1837 458.838 20.0493 458.405 20.0536C457.959 20.058 457.514 20.0849 457.068 20.1043C456.677 20.1205 456.677 20.1205 455.864 20.0254C455.566 19.9903 455.215 20.0439 454.924 20.0072C454.728 19.9838 454.558 19.9483 454.368 19.9234C454.287 19.9131 454.159 19.9135 454.057 19.9168C453.497 19.9366 452.929 19.9503 452.389 19.985C451.775 20.026 451.308 19.9853 450.867 19.8981C450.313 19.9163 449.753 19.9271 449.206 19.9573C448.808 19.9795 448.577 19.9307 448.306 19.891C448.211 19.8777 448.129 19.8555 448.028 19.8498C447.926 19.8441 447.805 19.8565 447.697 19.8613C447.251 19.8792 446.792 19.8881 446.36 19.9165C445.827 19.9527 445.622 19.8301 445.209 19.8164C444.933 19.8908 444.787 19.9919 444.239 20.0011C443.793 20.0085 443.348 20.0339 442.902 20.0517C442.679 20.0599 442.457 20.0696 442.234 20.0778C441.876 20.0925 441.708 20.1515 441.784 20.2414C441.825 20.2908 441.86 20.3403 441.895 20.3897C441.964 20.4781 441.796 20.5537 441.513 20.5651C440.729 20.596 439.953 20.6285 439.169 20.6564C438.96 20.6645 438.757 20.6396 438.587 20.5996C438.411 20.5596 438.214 20.5422 437.998 20.5504C437.215 20.5813 436.438 20.6138 435.655 20.6417C435.567 20.645 435.452 20.6303 435.364 20.6186C435.174 20.5921 434.991 20.5611 434.808 20.5332C434.362 20.5481 433.923 20.5584 433.484 20.5778C432.775 20.607 432.775 20.6085 432.253 20.5275C432.159 20.5128 432.064 20.4846 431.976 20.4863C431.638 20.4934 431.307 20.5094 430.969 20.524C429.977 20.5661 429.977 20.566 429.685 20.5219C429.421 20.4807 429.183 20.4303 428.785 20.4556C428.353 20.4839 427.894 20.4944 427.448 20.5108C427.117 20.5223 426.786 20.5353 426.455 20.5393C426.367 20.5411 426.272 20.5129 426.177 20.4981C425.906 20.4524 425.642 20.4157 425.271 20.4424C425.055 20.4581 424.825 20.4618 424.602 20.47C424.021 20.4928 424.021 20.4928 423.067 20.4056C422.972 20.3969 422.857 20.3867 422.763 20.3915C421.979 20.421 421.203 20.4534 420.419 20.4813C420.325 20.4846 420.21 20.476 420.115 20.4687C419.045 20.3849 419.045 20.3849 417.911 20.4305C417.479 20.4468 417.465 20.4529 417.011 20.3747C416.808 20.3408 416.638 20.3248 416.402 20.336C415.511 20.3748 414.612 20.4016 413.728 20.4464C413.33 20.4656 413.099 20.4212 412.828 20.3815C412.733 20.3683 412.631 20.3386 412.55 20.3404C411.659 20.3716 410.767 20.4089 409.876 20.4402C409.795 20.4434 409.693 20.4137 409.598 20.4005C409.415 20.374 409.238 20.334 409.035 20.3256C408.826 20.3173 408.596 20.3405 408.367 20.3487C407.806 20.37 407.806 20.3685 407.156 20.2819C407.068 20.2701 406.953 20.2539 406.865 20.2572C405.973 20.29 405.075 20.3183 404.191 20.3646C403.684 20.3902 403.339 20.3477 402.979 20.2857C402.905 20.2724 402.776 20.2668 402.682 20.2701C401.676 20.3077 400.676 20.3498 399.67 20.3875C399.461 20.3956 399.257 20.3707 399.088 20.3322C398.816 20.2715 398.499 20.2799 398.161 20.2945C397.385 20.3284 397.378 20.327 396.917 20.2563C396.822 20.2416 396.741 20.2223 396.639 20.2151C396.544 20.2079 396.423 20.2128 396.322 20.2161C395.876 20.2325 395.43 20.2503 394.984 20.2682C394.539 20.2861 394.086 20.2965 393.647 20.3234C393.107 20.3566 392.849 20.2598 392.469 20.2159C391.915 20.2371 391.348 20.2509 390.801 20.2841C390.383 20.3094 390.186 20.244 389.908 20.2103C389.813 20.1985 389.711 20.1733 389.623 20.1766C388.617 20.2127 387.611 20.2519 386.611 20.2955C386.368 20.3053 386.206 20.2937 386.003 20.2583C385.548 20.1786 385.528 20.1817 384.772 20.2141C384.441 20.2286 384.123 20.2416 383.838 20.1809C383.587 20.1261 383.283 20.1135 382.925 20.1326C382.486 20.1565 382.034 20.1699 381.588 20.1863C381.143 20.2042 380.697 20.2281 380.251 20.237C379.893 20.2456 379.675 20.1757 379.391 20.1405C379.303 20.1303 379.181 20.1291 379.08 20.1325C378.634 20.1473 378.175 20.1593 377.743 20.1861C377.216 20.2193 376.924 20.1376 376.552 20.0907C376.47 20.0804 376.335 20.0868 376.234 20.0917C375.451 20.1211 374.674 20.1535 373.891 20.1845C373.613 20.1448 373.328 20.1066 373.05 20.0669C372.605 20.0833 372.159 20.1012 371.713 20.1176C371.376 20.1306 371.031 20.1362 370.714 20.1597C370.302 20.191 370.098 20.121 369.82 20.0874C369.726 20.0756 369.624 20.0504 369.536 20.0537C368.975 20.0719 368.415 20.0917 367.861 20.1189C367.335 20.1461 367.123 20.0116 366.69 20.0144C366.244 20.0173 365.785 20.0382 365.353 20.0666C364.853 20.0996 364.501 20.0527 364.142 19.9892C364.067 19.9759 363.939 19.9688 363.844 19.9721C363.284 19.9918 362.73 20.0161 362.169 20.0358C362.075 20.0391 361.96 20.032 361.865 20.0232C360.796 19.9379 360.796 19.9364 360.33 19.9559C359.999 19.9689 359.661 19.985 359.323 19.9935C359.229 19.9968 359.114 19.9836 359.026 19.9719C358.321 19.8825 358.321 19.881 357.814 19.9005C357.369 19.9184 356.923 19.9363 356.477 19.9542C356.2 19.9145 355.915 19.8764 355.637 19.8367C355.083 19.8579 354.516 19.8746 353.969 19.9034C353.713 19.9162 353.544 19.9122 353.347 19.8752C353.103 19.8309 352.859 19.7791 352.454 19.8059C352.022 19.8343 351.562 19.8387 351.123 19.8626C350.597 19.8912 350.378 19.7552 349.952 19.758C349.506 19.7609 349.047 19.7818 348.615 19.8102C348.116 19.8433 347.763 19.7963 347.404 19.7329C347.329 19.7196 347.201 19.7125 347.106 19.7157C345.877 19.7631 344.655 19.8104 343.426 19.8607C342.669 19.8916 342.67 19.8931 341.229 19.8149C341.127 19.8092 341.019 19.8036 340.917 19.8069C340.472 19.8218 340.012 19.8337 339.58 19.8605C339.054 19.8937 338.762 19.8135 338.389 19.7651C338.308 19.7548 338.18 19.7612 338.071 19.7646C337.734 19.7761 337.403 19.7907 337.065 19.8037C336.62 19.8216 336.174 19.8395 335.728 19.8574C335.45 19.8192 335.166 19.7795 334.888 19.7413C334.334 19.7625 333.767 19.7748 333.22 19.808C332.801 19.8333 332.604 19.7709 332.327 19.7357C332.232 19.724 332.13 19.6987 332.042 19.7005C331.036 19.7367 330.03 19.7743 329.03 19.8194C328.618 19.8387 328.428 19.7717 328.15 19.738C328.055 19.7278 327.947 19.7086 327.859 19.7119C327.19 19.735 326.522 19.7625 325.853 19.7901C325.475 19.8063 325.475 19.8063 324.649 19.7157C324.554 19.7055 324.446 19.6953 324.351 19.6986C322.231 19.7803 320.117 19.8663 317.996 19.948C317.78 19.9561 317.584 19.9342 317.414 19.8942C317.238 19.8542 317.042 19.8338 316.825 19.8419C315.934 19.8762 315.036 19.9075 314.151 19.9493C313.787 19.9669 313.496 19.9483 313.245 19.8965C313.055 19.858 312.879 19.8436 312.642 19.8533C312.197 19.8727 311.751 19.8891 311.305 19.907C310.86 19.9249 310.414 19.9428 309.968 19.9606C309.522 19.9785 309.07 19.9889 308.631 20.0158C308.091 20.049 307.826 19.9567 307.453 19.9113C306.785 19.9359 306.116 19.9605 305.454 19.9865C304.563 20.0208 303.671 20.0581 302.78 20.0909C302.699 20.0941 302.597 20.0674 302.502 20.0542C302.224 20.0175 302.021 19.9656 301.609 19.9834C299.61 20.0691 297.597 20.1429 295.592 20.2271C295.173 20.2449 294.989 20.1809 294.705 20.1473C294.61 20.137 294.502 20.1164 294.414 20.1196C293.3 20.1606 292.185 20.2061 291.071 20.25C290.619 20.2679 290.619 20.2679 289.86 20.1772C289.772 20.1669 289.657 20.1538 289.562 20.1571C288.11 20.2126 286.665 20.2711 285.213 20.3281C284.997 20.3363 284.801 20.3159 284.624 20.2759C284.455 20.2359 284.251 20.214 284.042 20.2221C282.705 20.2743 281.361 20.325 280.031 20.3816C279.673 20.3977 279.375 20.3851 279.117 20.3319C278.934 20.2934 278.751 20.2774 278.522 20.2871C276.516 20.3669 274.51 20.4437 272.505 20.5279C272.12 20.5441 271.849 20.5164 271.605 20.4676C271.408 20.4292 271.239 20.4222 270.996 20.4289C270.739 20.4372 270.584 20.4542 270.443 20.4997C270.262 20.5588 270.148 20.6328 269.716 20.6386C269.27 20.6445 268.817 20.6639 268.379 20.6908C267.96 20.7176 267.763 20.6506 267.499 20.6109C267.302 20.583 267.12 20.579 266.87 20.5933C266.64 20.606 266.499 20.632 266.364 20.6804C266.069 20.7835 266.042 20.7835 265.676 20.7201C265.479 20.6862 265.303 20.6597 265.087 20.6664C264.195 20.6991 263.304 20.7349 262.413 20.7722C261.899 20.7933 261.893 20.7963 261.506 20.7224C261.316 20.6855 261.133 20.668 260.911 20.6777C258.459 20.7753 256.008 20.87 253.556 20.9721C253.178 20.9883 252.921 20.9576 252.65 20.9134C252.562 20.8986 252.473 20.8778 252.372 20.8722C252.27 20.8665 252.156 20.8728 252.048 20.8762C250.265 20.9462 248.475 21.0133 246.699 21.0908C246.294 21.1086 246.077 21.0612 245.799 21.023C245.704 21.0098 245.623 20.989 245.521 20.9833C245.42 20.9792 245.298 20.99 245.19 20.9949C243.407 21.0649 241.618 21.132 239.842 21.2096C239.416 21.2274 239.233 21.1649 238.955 21.1327C238.86 21.121 238.759 21.0987 238.671 21.102C238.11 21.1203 237.556 21.1445 236.996 21.1657C235.659 21.2194 234.321 21.2701 232.984 21.3253C232.471 21.3464 232.246 21.2134 231.813 21.2207C231.253 21.23 230.699 21.2617 230.139 21.2844C229.693 21.3023 229.247 21.3187 228.801 21.3381C228.362 21.356 228.362 21.356 227.266 21.2723C227.171 21.265 227.056 21.2549 226.962 21.2582C225.402 21.3185 223.835 21.3789 222.282 21.4438C221.924 21.4584 221.626 21.4518 221.369 21.397C221.185 21.3586 220.996 21.3396 220.773 21.3493C218.43 21.4421 216.093 21.5349 213.75 21.6262C213.662 21.6295 213.547 21.6148 213.459 21.6031C213.269 21.5766 213.086 21.5457 212.903 21.5177C212.768 21.5526 212.593 21.5847 212.506 21.624C212.385 21.6769 212.224 21.6925 211.967 21.7023C211.71 21.7121 211.548 21.7096 211.345 21.6711C211.1 21.6238 210.85 21.5871 210.451 21.6033C208 21.7054 205.548 21.7986 203.097 21.8992C202.692 21.9155 202.502 21.85 202.217 21.8163C202.122 21.8061 202.014 21.79 201.926 21.7932C200.92 21.8309 199.92 21.8715 198.914 21.9106C196.125 22.0213 193.336 22.1275 190.554 22.2442C190.047 22.2653 189.702 22.2288 189.343 22.1653C189.268 22.152 189.139 22.1449 189.045 22.1482C185.142 22.3014 181.238 22.456 177.342 22.6107C177.132 22.6188 176.929 22.5954 176.759 22.5569C176.583 22.5169 176.387 22.498 176.17 22.5062C174.388 22.5762 172.605 22.6463 170.822 22.7179C170.376 22.7357 170.37 22.7373 169.909 22.6666C169.814 22.6519 169.712 22.6237 169.638 22.6269C169.482 22.6349 169.334 22.6729 169.227 22.7242C169.12 22.7786 168.951 22.7942 168.701 22.8055C168.445 22.8168 168.276 22.8128 168.079 22.7773C167.828 22.7331 167.598 22.6902 167.193 22.7065C162.067 22.9145 156.941 23.1149 151.816 23.3214C151.404 23.3377 151.213 23.2752 150.929 23.2416C150.834 23.2314 150.739 23.2166 150.638 23.2139C150.53 23.2113 150.415 23.2206 150.307 23.2255C141.946 23.556 133.586 23.8881 125.226 24.2187C124.726 24.2382 124.733 24.2382 124.188 24.378C124.121 24.3948 124.033 24.4175 123.938 24.4208C121.379 24.5248 118.813 24.6258 116.247 24.7268C115.132 24.7708 114.018 24.8163 112.904 24.8588C112.505 24.8735 112.505 24.8735 111.556 25.0386C111.475 25.0524 111.38 25.0707 111.286 25.074C106.829 25.2514 102.372 25.4288 97.9078 25.6032C97.5566 25.6163 97.2733 25.6442 97.1124 25.7167C96.9985 25.7682 96.8504 25.7986 96.6276 25.8083C93.5076 25.9321 90.3878 26.0573 87.261 26.178C86.8896 26.1927 86.6672 26.2354 86.4859 26.2991C86.4255 26.3203 86.3719 26.3445 86.2843 26.3597C86.2034 26.3735 86.0819 26.3784 85.9806 26.3832C83.3064 26.489 80.6322 26.5979 77.9511 26.6992C77.5527 26.714 77.3915 26.77 77.1966 26.8292C77.1293 26.8489 77.0825 26.8761 76.9949 26.8899C76.9073 26.9022 76.7789 26.9026 76.6708 26.9059C74.4423 26.9939 72.2138 27.0833 69.9853 27.1713C69.5526 27.1651 69.4596 27.2525 69.251 27.3057C69.177 27.3239 69.1235 27.3481 69.0359 27.3604C68.9415 27.3727 68.8197 27.3716 68.7049 27.3749C66.922 27.445 65.1393 27.5195 63.3496 27.5851C62.9377 27.5999 62.8579 27.6767 62.6359 27.73C62.5619 27.7467 62.4881 27.7725 62.4003 27.7773C61.2861 27.8242 60.1719 27.8682 59.0576 27.9107C58.6861 27.9253 58.6861 27.9238 58.0334 28.0745C57.9593 28.0913 57.8717 28.1095 57.7772 28.1143C56.1092 28.1825 54.4344 28.2478 52.7597 28.3145C52.5436 28.3227 52.3956 28.3592 52.2884 28.4105C52.1812 28.4619 52.0264 28.4954 51.8103 28.5036C50.4732 28.5573 49.136 28.6125 47.7988 28.6616C47.4273 28.6748 47.1848 28.7131 47.0239 28.7811C46.9032 28.8326 46.755 28.8585 46.5186 28.8683C45.1815 28.9205 43.8445 28.9771 42.5005 29.0233C42.1087 29.0365 41.9069 29.0882 41.7459 29.1518C41.6184 29.2032 41.47 29.2217 41.2202 29.2315C38.7687 29.3261 36.3106 29.4208 33.8661 29.5244C33.4541 29.5422 33.2436 29.4903 32.9726 29.4536C32.5865 29.4022 32.2274 29.3462 32.2252 29.2291C32.2248 29.2111 32.1095 29.1904 32.0282 29.1757C31.4247 29.0649 31.4246 29.0649 31.3278 28.9451C31.2724 28.8716 31.2102 28.7968 31.1615 28.7218C31.0714 28.599 30.8544 28.5681 30.2331 28.5925C30.0103 28.6007 29.7875 28.6119 29.5646 28.6186C29.2336 28.6301 28.9827 28.5813 28.9202 28.4914C28.8855 28.442 28.8441 28.3926 28.8094 28.3431C29.1471 28.3301 29.1402 28.3286 29.7315 28.1451C29.9801 28.0677 29.9803 28.0677 29.499 27.9926C29.316 27.9646 29.1397 27.9336 28.9432 27.9072C28.8552 27.8955 28.7402 27.8883 28.6456 27.8916C28.0851 27.9113 27.5314 27.9341 26.9776 27.9568C26.0862 27.9926 26.0861 27.9926 25.1777 27.8422C25.1032 27.8304 24.9879 27.8083 25.0011 27.7962C25.0744 27.7404 25.2564 27.7158 25.4861 27.7091C25.8238 27.699 26.1547 27.683 26.4856 27.67C26.7084 27.6618 26.9313 27.6521 27.1541 27.6439C27.3626 27.5862 27.5779 27.53 27.7728 27.4708C28.082 27.3798 28.0818 27.3768 27.6549 27.315C27.3838 27.2738 27.0925 27.2371 26.8147 27.1989C26.4838 27.212 26.1462 27.2265 25.8153 27.2381C25.3966 27.2529 25.2271 27.2248 25.1171 27.1276C25.0209 27.0423 25.1345 26.9683 25.4585 26.9493C25.7893 26.9303 26.1001 26.9173 26.2676 26.8402C26.4284 26.7662 26.7117 26.7367 27.063 26.7296C27.2859 26.7245 27.5087 26.7133 27.7315 26.7036C28.0219 26.6907 28.1759 26.6136 28.1135 26.5282C28.0787 26.4727 28.0102 26.4264 27.7465 26.4152C26.5764 26.3662 26.5629 26.3678 25.9798 26.2675C25.9256 26.2586 25.8846 26.2317 25.9046 26.2181C25.938 26.1955 26.0118 26.1622 26.0928 26.1575C26.8693 26.1221 27.6458 26.0896 28.4226 26.0647C28.6792 26.0564 28.8683 26.0453 28.9551 25.9895C29.0753 25.9125 29.0199 25.8421 28.7824 25.7903C28.7078 25.774 28.5857 25.7534 28.5046 25.7551C27.6131 25.7849 26.7285 25.8221 25.837 25.8519C25.7559 25.8552 25.6069 25.8301 25.5727 25.8107C25.5045 25.7749 25.6049 25.7265 25.8411 25.7093C26.1515 25.6858 26.4691 25.6833 26.6772 25.6076C26.9658 25.5001 27.3221 25.4014 27.6446 25.2983C27.6983 25.2801 27.7857 25.2452 27.7653 25.2423C27.5958 25.2098 27.3993 25.1849 27.223 25.1539C26.9247 25.1022 26.9233 25.0287 26.9896 24.9579C27.0426 24.9006 27.2449 24.8775 27.4949 24.8767C27.603 24.8764 27.7382 24.876 27.8258 24.8622C28.0549 24.8285 28.1285 24.7862 28.0131 24.755C27.9451 24.7372 27.8231 24.712 27.7421 24.7153C26.2968 24.7693 24.8447 24.8218 23.4064 24.8878C22.981 24.9071 22.7841 24.8507 22.5266 24.8109C22.33 24.78 22.1472 24.7685 21.9044 24.7918C21.675 24.8135 21.4518 24.8022 21.309 24.7531C21.1934 24.7129 21.3954 24.6778 21.9421 24.637C22.0433 24.6292 22.1581 24.6243 22.2321 24.6091C23.013 24.4445 23.013 24.443 23.5532 24.4203C24.0799 24.3992 24.08 24.3977 24.3555 24.3097C24.4831 24.2688 24.6242 24.2278 24.745 24.1854C24.792 24.1687 24.8727 24.1384 24.8455 24.1295C24.6959 24.0834 24.4929 24.0735 24.2566 24.0848C23.73 24.1119 23.108 24.0928 22.8336 24.2363C22.7264 24.2907 22.5577 24.3063 22.3146 24.316C19.8699 24.4106 17.4253 24.5113 14.9738 24.6029C14.5753 24.6176 14.394 24.6738 14.2397 24.7358C14.1055 24.7873 13.9571 24.8027 13.7004 24.8125C13.4438 24.8223 13.2411 24.8275 13.0915 24.7784C13.0031 24.7486 13.0767 24.7063 13.2786 24.6637C13.5681 24.6027 13.5126 24.5278 13.4167 24.4575C13.3482 24.4112 13.1382 24.3788 12.9152 24.3825C12.5842 24.3895 12.267 24.407 11.9888 24.3478C11.826 24.3137 11.6227 24.2903 11.4397 24.2609C11.0872 24.2004 10.7346 24.1384 10.242 24.1805C9.90387 24.1665 9.66635 24.1131 9.39526 24.0719C8.94121 24.0043 8.90047 23.9939 9.22348 23.9193C9.58687 23.8356 9.30099 23.7283 9.50222 23.6466C9.71685 23.5589 10.0129 23.4814 10.2749 23.3995C10.3421 23.3782 10.4026 23.3585 10.4698 23.3373C10.3138 23.3077 10.1712 23.2706 9.98837 23.2502C9.75135 23.2239 9.62909 23.1912 9.64089 23.0981C9.59333 23.0847 9.61411 23.1192 9.66833 23.128C9.72932 23.1368 9.87796 23.1289 9.95211 23.1182C10.1408 23.089 10.2346 23.0512 10.1867 23.0198C10.1594 23.0034 10.0307 22.9828 9.9496 22.983C9.80093 22.9835 9.67317 23.0169 9.63412 23.0981C8.87839 23.162 8.09493 23.1944 7.31147 23.2209C7.23044 23.2241 7.12857 23.1944 7.03369 23.1797C6.72188 23.1296 6.72187 23.1311 5.8093 23.1189C5.71466 23.1177 5.58594 23.097 5.53825 23.0762C5.34058 22.9852 5.34553 22.8845 5.24911 22.7872C5.42364 22.7236 5.59807 22.6615 5.77939 22.5994C6.142 22.4736 6.61312 22.3626 6.89441 22.225C6.83223 22.1516 6.74976 22.0783 7.04599 22.0173C7.88932 21.9397 7.88261 21.9397 8.11104 21.8669C8.76276 21.6607 9.40766 21.4529 10.0865 21.2496C10.268 21.1965 10.2674 21.168 9.94266 21.1464C9.84118 21.1408 9.73289 21.1396 9.62482 21.1429C9.28712 21.1545 8.94974 21.1825 8.6185 21.1775C8.28729 21.1741 8.04279 21.1087 7.77173 21.069C7.49388 21.0278 7.21602 20.9851 6.93815 20.9424C6.62062 20.9479 6.30384 20.9909 5.98498 20.9243C5.74072 20.8725 5.43595 20.8359 5.15808 20.7932C5.36545 20.6785 5.75585 20.5902 6.05808 20.4886C6.33346 20.3962 6.34009 20.3977 7.08214 20.3248C7.43293 20.2907 7.55143 20.1206 7.25317 20.072C6.8939 20.013 6.51452 19.9586 6.14854 19.9027C5.83101 19.9082 5.50746 19.9497 5.20211 19.8831C4.96464 19.8328 4.69364 19.799 4.30205 19.8198C3.6404 19.8548 2.96495 19.8734 2.29644 19.9025C2.06684 19.9122 1.81662 19.907 1.71431 19.8563C1.64607 19.8204 1.84114 19.7703 2.06395 19.7591C2.40156 19.743 2.70529 19.7241 2.87284 19.6485C3.03364 19.5729 3.33053 19.5494 3.68174 19.5379C3.77629 19.5346 3.88416 19.5162 3.93113 19.498C4.1728 19.4102 4.44174 19.3343 4.96214 19.3357C5.17783 19.305 5.29194 19.2671 5.2237 19.2313C5.18279 19.2119 5.04048 19.1868 4.95944 19.19C4.39883 19.2068 3.83823 19.2235 3.29135 19.2522C3.03478 19.265 2.83876 19.2686 2.67574 19.2241C2.5603 19.1944 2.62036 19.1537 2.8358 19.1095C3.02433 19.0713 3.07764 19.0276 3.06318 18.9766C3.02719 18.8581 2.82378 18.8242 2.17518 18.8337C1.70901 18.8411 1.59376 18.822 1.4905 18.7202C1.46302 18.6962 1.39495 18.6634 1.44195 18.6467C1.73064 18.5437 1.91754 18.417 2.46403 18.3673C2.67994 18.3486 2.90961 18.3479 3.04404 18.3084C3.17848 18.269 3.29934 18.2235 3.44056 18.1856C3.61543 18.14 3.73617 18.0976 3.65455 18.0693C3.51845 18.0186 3.30219 18.0148 3.05248 18.0336C2.83652 18.0493 2.60679 18.0515 2.38395 18.0612C1.98555 18.0789 1.66052 18.0409 1.612 17.9749C1.48037 17.8012 1.34198 17.6289 1.22388 17.4551C1.20997 17.4341 1.24317 17.4069 1.2969 17.3887C1.48494 17.3251 1.68664 17.2644 1.88148 17.2022C2.10994 17.131 2.47516 17.1434 2.78577 17.1289C3.22466 17.108 3.22454 17.1095 3.80979 16.9635C4.0385 16.9058 4.43764 16.9271 4.67322 16.8753C4.74725 16.8585 4.86163 16.8312 4.84108 16.8162C4.81369 16.7968 4.67833 16.7822 4.57679 16.7735C4.48202 16.7647 4.36708 16.7606 4.2658 16.7654C3.03669 16.8128 1.81444 16.8631 0.585305 16.9089C0.375954 16.9171 0.145572 16.8847 0.070375 16.8384C-0.00476645 16.7951 0.0144675 16.7425 3.45479e-05 16.6929C0.194869 16.6308 0.416733 16.573 0.584453 16.5064C0.711905 16.455 0.860185 16.432 1.11692 16.4282C1.45473 16.4227 1.78556 16.4036 2.16374 16.3889C2.86249 16.1676 3.54748 15.9357 4.30029 15.7141C4.60274 15.6246 4.52686 15.5347 4.58593 15.4399C4.64513 15.3526 5.09813 15.3648 5.40175 15.3383C5.64464 15.3165 5.72474 15.2682 5.62952 15.2355C5.5751 15.2161 5.45311 15.194 5.3585 15.1943C5.13549 15.195 4.91274 15.2092 4.68988 15.2174C4.46701 15.2256 4.21015 15.2218 4.02816 15.2479C3.8529 15.2725 3.7389 15.3239 3.62482 15.3678C3.49732 15.4162 3.3288 15.4333 3.07206 15.4371C2.74099 15.4411 2.41013 15.4556 2.07919 15.4672C1.71319 15.4097 1.33362 15.3538 0.981077 15.2934C0.913277 15.2815 0.89905 15.2471 0.90539 15.2245C0.917822 15.1659 0.815814 15.1302 0.592281 15.1023C0.402619 15.0789 0.246538 15.0448 0.0702808 15.0153C0.204685 14.9744 0.352685 14.9349 0.460003 14.891C0.694828 14.7987 0.990979 14.7317 1.50462 14.7331C1.70627 14.6739 1.86708 14.6013 2.12988 14.56C2.37919 14.5202 2.80567 14.5579 2.99325 14.4687C3.08705 14.4249 3.22813 14.3749 3.41025 14.3563C3.70031 14.3269 4.07901 14.3408 4.2464 14.2561C4.34687 14.2078 4.49468 14.1638 4.69043 14.1512C4.91319 14.137 5.14283 14.1333 5.30449 14.1042C5.39207 14.0889 5.48624 14.0646 5.48585 14.0436C5.4856 14.0301 5.35016 14.0095 5.25539 14.0008C5.16734 13.9905 5.05219 13.9834 4.95088 13.9867C4.61316 13.9967 4.28234 14.0143 3.94462 14.0243C3.85007 14.0276 3.74178 14.0174 3.64025 14.0087C3.34247 13.9856 3.36214 13.9555 3.59766 13.9007C3.83321 13.8475 4.001 13.7793 4.19583 13.7172C4.41188 13.706 4.68224 13.7097 4.83038 13.6807C5.07955 13.6334 5.25396 13.5653 5.45561 13.5061C5.67845 13.4964 5.90814 13.4927 6.11732 13.4755C6.20506 13.4692 6.24503 13.4361 6.31901 13.4163C6.45347 13.3784 6.56744 13.324 6.74956 13.3054C7.0464 13.2774 7.41151 13.2868 7.58568 13.2037C7.68616 13.1553 7.84058 13.1038 8.02974 13.1002C8.55674 13.0926 8.77822 13.0093 9.04708 12.9304C9.24873 12.8712 9.6818 12.8999 9.90372 12.8407C10.0517 12.8027 10.159 12.7558 10.307 12.7193C10.3676 12.7041 10.4958 12.6962 10.5971 12.6914C11.1508 12.6671 11.7113 12.6489 12.265 12.6231C12.3528 12.6184 12.4335 12.5956 12.5008 12.5774C12.642 12.5379 12.7287 12.4836 12.904 12.4575C13.0792 12.4314 13.3292 12.4307 13.5453 12.4225C14.2409 12.3978 14.2952 12.4037 14.6104 12.275C14.8653 12.1706 15.4952 12.2423 15.7026 12.1275C15.823 12.0611 16.0449 12.0063 16.4435 11.9976C17.0042 11.9854 17.5578 11.9551 18.1183 11.9339C18.618 11.9143 18.6113 11.9143 19.1493 11.773C19.3914 11.7092 19.7498 11.7171 20.0672 11.7041C20.4049 11.6911 20.7154 11.6721 20.8762 11.5965C21.037 11.5225 21.3339 11.4975 21.6783 11.4859C21.9957 11.4744 22.3541 11.4809 22.603 11.42C23.2086 11.274 23.2018 11.2725 23.6272 11.2562C24.2958 11.2301 24.9644 11.204 25.6329 11.1764C26.0786 11.1585 26.5448 11.1541 26.9632 11.1198C27.2668 11.0948 27.4004 11.0103 27.5953 10.9512C28.149 10.9269 28.7027 10.9027 29.2565 10.88C30.033 10.8475 30.8164 10.8181 31.5998 10.7872C31.9366 10.7291 31.9817 10.6028 32.5492 10.595C32.8871 10.591 33.2178 10.5704 33.5555 10.5574C34.116 10.5346 34.6696 10.5059 35.2303 10.4937C35.6559 10.4849 35.7286 10.4035 35.9507 10.3518C36.0247 10.3335 36.0919 10.3078 36.1796 10.303C37.0574 10.2583 37.9627 10.2465 38.8198 10.1823C38.9075 10.176 38.988 10.1442 39.0079 10.1216C39.0212 10.1096 38.9059 10.0874 38.8313 10.0771C38.7433 10.0654 38.6282 10.0537 38.5336 10.057C35.7446 10.1662 32.9556 10.2769 30.1665 10.3861C29.7748 10.4023 29.7748 10.4008 28.825 10.5689C28.7442 10.5827 28.6497 10.598 28.5485 10.6028C28.1028 10.6222 27.6502 10.6341 27.2114 10.658C26.8535 10.6771 26.556 10.66 26.2982 10.6067C26.115 10.5683 25.9255 10.5568 25.6958 10.5605C25.439 10.5658 25.2705 10.5829 25.1226 10.6239C24.9276 10.68 24.8276 10.7524 24.4156 10.7687C22.5179 10.8391 20.6202 10.917 18.7293 10.9919C18.4654 10.9717 18.3364 10.9406 18.4033 10.9028C18.4434 10.8802 18.524 10.8499 18.605 10.8467C19.3816 10.8127 20.1649 10.7833 20.9415 10.7509C21.0496 10.746 21.1983 10.7486 21.2588 10.7334C21.5549 10.6649 21.6611 10.5549 22.2219 10.5457C22.5462 10.5402 22.8768 10.5167 23.1873 10.4947C23.275 10.4884 23.3556 10.4566 23.3754 10.434C23.382 10.422 23.2734 10.3998 23.1921 10.3895C22.894 10.3469 22.5504 10.4005 22.2525 10.3714C22.1509 10.3612 22.0086 10.3466 21.988 10.3287C21.9742 10.3122 22.0886 10.2848 22.1694 10.268C22.2434 10.2528 22.3445 10.239 22.4458 10.2342C23.3372 10.1969 24.2287 10.1581 25.1202 10.1283C25.4849 10.1167 25.7409 10.0784 25.9018 10.0088C26.0225 9.95735 26.1707 9.92987 26.4003 9.92166C27.9603 9.8613 29.5202 9.79493 31.0871 9.73905C31.4788 9.72583 31.6807 9.67566 31.8417 9.61059C31.9691 9.55914 32.1175 9.54066 32.3673 9.53088C34.6027 9.44592 36.8243 9.35199 39.0598 9.27003C39.4717 9.25524 39.5922 9.1903 39.8007 9.13409C39.8747 9.11434 39.9214 9.09017 40.0158 9.07787C40.1102 9.06556 40.2318 9.06668 40.3467 9.06332C42.1295 8.99326 43.9124 8.91871 45.7021 8.85314C46.1208 8.83834 46.2004 8.763 46.4157 8.70978C46.4897 8.69303 46.5568 8.6658 46.6446 8.66102C47.9817 8.60585 49.3188 8.55369 50.6559 8.50002C51.5473 8.46424 52.4387 8.42845 53.3302 8.39418C53.7691 8.37781 53.7691 8.3763 54.3612 8.23182C54.4284 8.21509 54.5228 8.19527 54.6105 8.1905C57.1767 8.0865 59.7361 7.98704 62.3023 7.88453C62.5184 7.87636 62.6732 7.84133 62.7804 7.78994C62.8875 7.73855 63.0425 7.70354 63.2518 7.69539C65.2575 7.61413 67.2631 7.53438 69.2756 7.45761C69.6403 7.44448 69.8964 7.40764 70.0573 7.33957C70.178 7.28814 70.3262 7.26067 70.5558 7.25245C72.5615 7.1742 74.5672 7.09143 76.5798 7.01616C76.9647 7.00146 77.1529 6.94983 77.341 6.88918C77.4082 6.86795 77.4617 6.83325 77.5427 6.83C78.5421 6.78487 79.5346 6.73827 80.541 6.70664C80.9597 6.69334 81.1005 6.62983 81.2684 6.56925C81.4026 6.52078 81.5578 6.50379 81.8145 6.49699C82.3751 6.48175 82.9288 6.45453 83.4757 6.42732C83.5567 6.42256 83.6574 6.38921 83.6638 6.36817C83.6766 6.32909 83.5206 6.30253 83.2636 6.28981C80.5893 6.39564 77.9084 6.5015 75.2341 6.60733C74.7952 6.6252 74.7951 6.62521 74.2031 6.76969C74.1358 6.78642 74.0415 6.80624 73.947 6.81103C71.3808 6.91353 68.8214 7.01451 66.2552 7.11701C66.0391 7.12519 65.8843 7.1602 65.7771 7.21159C65.67 7.26298 65.515 7.29799 65.3057 7.30614C62.8543 7.40379 60.403 7.50294 57.9448 7.5961C57.5801 7.60923 57.324 7.64454 57.1631 7.71412C57.0424 7.76555 56.8942 7.79304 56.6646 7.80126C54.3212 7.89256 51.9846 7.98834 49.6344 8.07666C49.398 8.0849 49.2216 8.04189 49.2343 8.00131C49.2407 7.98026 49.3413 7.94543 49.4223 7.94218C50.6446 7.88886 51.8601 7.83406 53.0894 7.79273C53.5014 7.77945 53.6217 7.71301 53.8301 7.6568C53.8973 7.63707 53.951 7.61138 54.0386 7.6006C54.133 7.58829 54.2547 7.58943 54.3695 7.58607C57.2666 7.47054 60.1638 7.3535 63.0677 7.24396C63.4864 7.22765 63.566 7.15381 63.7813 7.10059C63.8553 7.08234 63.9224 7.05512 64.0102 7.05184C64.9016 7.01306 65.793 6.97878 66.6844 6.9445C68.2444 6.88263 69.8044 6.82077 71.3711 6.75888C71.8236 6.74097 71.8236 6.74097 72.4022 6.59803C72.4694 6.5813 72.5637 6.56 72.6515 6.55673C76.7777 6.39236 80.9039 6.22799 85.0301 6.06513C85.2462 6.05696 85.401 6.02194 85.5082 5.97055C85.6154 5.92067 85.7701 5.88415 85.9794 5.8745C91.5575 5.65311 97.1289 5.43173 102.707 5.21334C103.072 5.1987 103.328 5.16637 103.489 5.0953C103.603 5.04389 103.758 5.01639 103.987 5.00667C110.119 4.76406 116.251 4.52144 122.39 4.2773C126.516 4.11444 130.642 3.94857 134.768 3.78871C135.146 3.77403 135.348 3.72685 135.536 3.6647C135.597 3.64349 135.657 3.60876 135.738 3.60551C136.623 3.56525 137.507 3.52799 138.392 3.49073C138.67 3.53042 138.947 3.56862 139.225 3.60831C139.434 3.55061 139.635 3.49141 139.844 3.43371C141.181 3.38605 142.498 3.31442 143.849 3.28924C143.937 3.28747 144.032 3.31571 144.126 3.33044C144.757 3.4231 145.115 3.41449 145.511 3.28713C145.652 3.24164 145.773 3.20073 145.989 3.19255C146.658 3.16347 147.333 3.14337 147.995 3.1098C148.353 3.09218 148.65 3.10627 148.908 3.15954C149.091 3.19802 149.281 3.21397 149.504 3.20427C150.733 3.15544 151.955 3.10812 153.184 3.05629C153.272 3.05302 153.352 3.02723 153.42 3.009C153.561 2.96952 153.682 2.92711 153.816 2.88615C153.999 2.91112 154.202 2.93002 154.352 2.9626C154.542 3.00106 154.717 3.00051 154.974 2.98921C159.877 2.79242 164.786 2.60012 169.689 2.40183C170.108 2.38552 170.291 2.44803 170.576 2.4802C170.671 2.49192 170.765 2.50664 170.867 2.50933C170.975 2.512 171.09 2.50264 171.198 2.49781C174.878 2.35133 178.559 2.20635 182.239 2.05987C182.725 2.04035 182.725 2.04035 183.45 2.13123C183.538 2.14297 183.653 2.15614 183.748 2.15134C185.423 2.08762 187.098 2.0194 188.766 1.9542C188.982 1.94603 189.165 1.96949 189.361 2.00342C189.748 2.06981 189.775 2.06974 190.057 1.96976C190.191 1.92279 190.332 1.89381 190.555 1.87961C190.798 1.86384 190.994 1.86776 191.184 1.89421C191.455 1.93092 191.652 1.99337 192.064 1.97559C193.847 1.89952 195.636 1.83546 197.412 1.75791C197.818 1.74015 198.035 1.79053 198.306 1.82724C198.401 1.84046 198.489 1.86122 198.59 1.86541C198.692 1.8696 198.813 1.85871 198.921 1.85387C201.15 1.76592 203.385 1.67947 205.607 1.58554C206.025 1.56773 206.209 1.63173 206.494 1.66389C206.588 1.67561 206.697 1.69631 206.785 1.69304C208.122 1.64237 209.466 1.58867 210.803 1.535C211.282 1.5155 211.282 1.517 212.014 1.60636C212.102 1.6181 212.217 1.62976 212.312 1.62647C213.872 1.56611 215.438 1.50422 216.998 1.44236C217.478 1.42286 217.478 1.42286 218.865 1.49669C218.966 1.50238 219.074 1.51107 219.176 1.50775C220.958 1.4377 222.748 1.36911 224.531 1.29455C224.889 1.27993 225.186 1.29103 225.444 1.34429C225.627 1.38278 225.817 1.39872 226.04 1.38902C228.045 1.30927 230.058 1.2325 232.057 1.14826C232.442 1.13206 232.692 1.16432 232.963 1.20703C233.051 1.22178 233.14 1.24253 233.241 1.24823C233.343 1.25392 233.458 1.24756 233.566 1.24272C235.571 1.16297 237.584 1.0877 239.583 1.00196C239.988 0.984197 240.205 1.03458 240.476 1.07129C240.571 1.08452 240.673 1.11123 240.754 1.10948C241.537 1.08154 242.321 1.05662 243.097 1.01669C243.516 0.994374 243.699 1.06287 243.984 1.09504C244.079 1.10526 244.187 1.12746 244.275 1.12419C245.95 1.06047 247.625 0.99375 249.293 0.925547C249.529 0.91581 249.705 0.928771 249.895 0.967231C250.146 1.01902 250.437 1.03915 250.801 1.02151C251.578 0.984579 252.361 0.958149 253.145 0.927206C253.604 0.909275 253.604 0.90928 255.011 0.98304C255.113 0.988734 255.221 0.997405 255.322 0.99409C256.659 0.941922 258.003 0.891238 259.333 0.834586C259.691 0.818468 259.989 0.831063 260.247 0.884332C260.43 0.922812 260.613 0.938778 260.842 0.929061C262.071 0.880229 263.294 0.831414 264.523 0.782582C264.969 0.764692 265.414 0.734782 265.86 0.733409C266.184 0.733913 266.422 0.80526 266.714 0.840405C266.795 0.850667 266.93 0.838252 267.038 0.834916C268.598 0.773052 270.165 0.715668 271.718 0.646317C272.123 0.628552 272.34 0.678938 272.611 0.715647C272.706 0.72887 272.808 0.755589 272.889 0.753838C273.449 0.735595 274.003 0.711364 274.564 0.690117C275.232 0.664033 275.908 0.643935 276.569 0.608862C277.109 0.58017 277.315 0.710182 277.747 0.713357C278.078 0.716843 278.416 0.69028 278.747 0.677249C279.415 0.651165 280.084 0.62208 280.752 0.599C280.989 0.590764 281.171 0.566166 281.244 0.511879C281.258 0.501326 281.142 0.479165 281.068 0.465879C280.166 0.315479 280.166 0.315472 279.261 0.351294C278.701 0.374042 278.147 0.396773 277.586 0.416518C277.492 0.419812 277.383 0.408132 277.289 0.399414C277.018 0.374718 277.044 0.344605 277.273 0.28984C277.502 0.235076 277.676 0.16847 277.871 0.106301C278.149 0.144491 278.42 0.182687 278.698 0.220876C278.921 0.212682 279.143 0.203 279.366 0.194805C280.481 0.152333 281.595 0.108356 282.709 0.0688874C282.79 0.0656346 282.892 0.0953597 282.987 0.110085C283.258 0.1528 283.502 0.189582 283.894 0.171858C284.893 0.125234 285.899 0.0906028 286.899 0.0499856C287.338 0.0321165 287.338 0.0321179 288.11 0.122848C288.198 0.133089 288.313 0.144749 288.408 0.141455C289.414 0.10382 290.413 0.0632076 291.42 0.0240712C291.636 0.0158979 291.846 0.0347734 292.002 0.0778421C292.063 0.0956744 292.05 0.125742 292.311 0.371217C293.112 0.568479 293.66 0.545782 294.213 0.526058C294.45 0.517823 294.659 0.509663 294.814 0.479152C294.895 0.462385 294.996 0.438044 294.995 0.418523C294.995 0.403507 294.846 0.379934 294.751 0.377221C294.082 0.349247 293.447 0.414278 292.792 0.42981C292.488 0.436752 292.224 0.385005 292.168 0.299579C292.154 0.275595 292.133 0.250131 292.113 0.226168C292.092 0.202205 292.078 0.17672 292.057 0.152756C291.794 0.146059 291.639 0.173562 291.525 0.22497C291.431 0.267307 291.297 0.315774 291.115 0.33886C290.933 0.363447 290.682 0.359719 290.46 0.367913C290.243 0.376087 290.007 0.396333 289.804 0.386445C289.601 0.375056 289.438 0.332001 289.249 0.305554C289.161 0.29231 289.052 0.273129 288.964 0.276402C288.188 0.304321 287.418 0.332208 286.648 0.367614C286.243 0.386881 286.039 0.324446 285.781 0.286194C285.578 0.256785 285.375 0.264908 285.343 0.334086C285.258 0.499534 285.57 0.567648 286.259 0.533994C286.826 0.505218 287.34 0.499147 287.788 0.599885C287.849 0.613213 287.991 0.61878 288.079 0.615507C288.632 0.595783 289.179 0.571573 289.733 0.551848C289.834 0.548533 289.943 0.554197 290.037 0.559913C291.418 0.636759 291.418 0.638268 291.883 0.618815C292.106 0.609119 292.322 0.600945 292.298 0.372762C292.719 0.126689 293.395 0.108095 294.049 0.0700397C294.475 0.0462057 294.658 0.111719 294.936 0.145404C295.031 0.157125 295.133 0.180835 295.221 0.177561C296.673 0.123538 298.118 0.0665254 299.563 0.00651674C299.806 -0.00324139 299.982 0.00522947 300.172 0.0436893C300.416 0.0924942 300.687 0.123203 301.072 0.103999C301.841 0.0655898 302.625 0.0406592 303.408 0.00821533C303.807 -0.00802741 303.807 -0.0080429 304.613 0.0825833C304.701 0.0928243 304.816 0.104485 304.91 0.10119C305.694 0.0732514 306.47 0.0393358 307.247 0.00991586C307.463 0.00174253 307.659 0.0221603 307.829 0.0621842C307.999 0.102208 308.202 0.122605 308.411 0.114452C309.195 0.0850113 309.971 0.0525978 310.748 0.023178C310.842 0.0198837 310.957 0.030041 311.046 0.040282C311.872 0.130846 311.872 0.13083 312.25 0.11465C312.804 0.090421 313.371 0.0781752 313.918 0.046459C314.451 0.0147843 314.73 0.101018 315.096 0.147947C316.095 0.110333 317.101 0.0787124 318.094 0.0336112C318.499 0.0143444 318.716 0.0632279 318.987 0.101438C319.082 0.114662 319.177 0.142905 319.265 0.141133C319.603 0.134087 319.934 0.116553 320.265 0.103521C320.596 0.0904894 320.933 0.0774386 321.264 0.064407C321.644 0.10679 321.895 0.208129 322.435 0.171928C322.759 0.149908 323.104 0.144343 323.435 0.131311C323.766 0.11828 324.103 0.105229 324.434 0.0921971C324.657 0.0840031 324.887 0.0787848 325.103 0.064605C325.501 0.0408542 325.699 0.113839 325.983 0.146001C326.078 0.156222 326.186 0.173897 326.274 0.170623C326.943 0.147543 327.618 0.127446 328.273 0.0908921C328.779 0.0623038 329.125 0.106298 329.484 0.168264C329.559 0.18155 329.687 0.188662 329.782 0.185368C330.565 0.157429 331.342 0.123495 332.118 0.0940754C332.328 0.0859228 332.531 0.109324 332.701 0.147846C332.877 0.187849 333.073 0.206782 333.289 0.198609C334.066 0.169189 334.85 0.136736 335.626 0.107316C335.721 0.104022 335.836 0.115684 335.924 0.127426C336.682 0.218198 336.682 0.219701 337.128 0.20031C337.236 0.195472 337.351 0.192104 337.459 0.187266C338.013 0.164539 338.587 0.155274 339.127 0.117572C339.748 0.0751159 340.202 0.12478 340.643 0.209021C341.196 0.189297 341.764 0.177037 342.304 0.145342C342.709 0.12157 342.926 0.177963 343.197 0.214672C343.292 0.227895 343.394 0.254613 343.475 0.25136C344.258 0.223421 345.042 0.198493 345.811 0.158583C346.23 0.136271 346.414 0.20327 346.698 0.236934C346.793 0.248656 346.895 0.269378 346.983 0.266104C347.428 0.252719 347.874 0.233319 348.32 0.215429C348.84 0.194307 348.84 0.195807 349.531 0.285285C349.856 0.327834 350.18 0.292297 350.497 0.280809C350.835 0.267757 351.152 0.257773 351.424 0.318508C351.593 0.35703 351.797 0.380433 352.006 0.373782C352.452 0.358895 352.904 0.343994 353.343 0.320119C353.694 0.301018 353.998 0.312089 354.256 0.366859C354.439 0.40534 354.629 0.42429 354.852 0.414594C355.851 0.375479 356.858 0.334827 357.857 0.297213C357.945 0.293939 358.067 0.307085 358.148 0.32035C358.338 0.346797 358.521 0.376261 358.704 0.405732C359.143 0.390866 359.595 0.383482 360.028 0.361129C360.487 0.338693 360.906 0.329894 361.265 0.411381C361.34 0.429171 361.449 0.454352 361.536 0.452581C361.874 0.445535 362.205 0.429504 362.536 0.416473C362.867 0.403441 363.204 0.39039 363.535 0.377358C363.921 0.413714 364.167 0.52108 364.707 0.484879C365.031 0.462859 365.375 0.457294 365.706 0.444262C366.037 0.431231 366.375 0.416678 366.706 0.405148C366.814 0.401812 366.935 0.393926 367.03 0.399641C367.131 0.405336 367.219 0.426093 367.308 0.440839C367.579 0.483554 367.83 0.526336 368.214 0.499624C368.538 0.477603 368.883 0.472037 369.214 0.457504C369.666 0.439593 369.666 0.439596 370.418 0.53189C370.723 0.569996 371.067 0.517884 371.358 0.550025C371.554 0.571947 371.724 0.608959 371.913 0.633904C371.995 0.644166 372.123 0.648269 372.218 0.644975C372.664 0.630088 373.116 0.615188 373.555 0.591312C373.913 0.572191 374.21 0.589293 374.461 0.642582C374.645 0.681063 374.827 0.697028 375.057 0.687312C376.171 0.641836 377.286 0.602355 378.393 0.552396C378.771 0.534714 379.076 0.559312 379.286 0.612726C379.646 0.704724 380.151 0.593549 380.524 0.667487C380.755 0.71333 380.985 0.766684 381.404 0.742871C382.174 0.701459 382.957 0.678013 383.734 0.648593C384.012 0.688284 384.289 0.727984 384.574 0.767655C385.02 0.749765 385.465 0.731865 385.911 0.715477C386.242 0.702445 386.58 0.687892 386.911 0.676362C387.019 0.673027 387.133 0.666665 387.235 0.673862C387.336 0.681058 387.418 0.700333 387.513 0.715058C387.98 0.787203 387.98 0.788712 388.75 0.75631C389.081 0.741777 389.399 0.73179 389.677 0.791002C389.935 0.845772 390.239 0.855341 390.59 0.837742C391.252 0.805673 391.92 0.781091 392.596 0.75799C392.805 0.749837 393.001 0.774763 393.178 0.813264C393.443 0.87402 393.767 0.867017 394.098 0.84948C394.537 0.827106 394.969 0.804758 395.342 0.887705C395.416 0.905496 395.532 0.930655 395.613 0.928904C396.167 0.915187 396.728 0.904458 397.268 0.874264C397.808 0.84407 398.073 0.936357 398.446 0.980262C398.999 0.959036 399.56 0.937787 400.114 0.916562C400.222 0.911724 400.35 0.897823 400.445 0.90504C400.844 0.935347 401.076 1.04726 401.622 1.01104C401.94 0.990539 402.284 0.98348 402.615 0.977956C402.703 0.976184 402.819 1.00135 402.88 1.02068C402.914 1.03109 402.88 1.05972 402.84 1.07486C402.719 1.11728 402.571 1.15679 402.464 1.20067C402.451 1.20672 402.579 1.23334 402.654 1.24513C402.837 1.27159 403.046 1.26645 403.289 1.25369C403.499 1.24254 403.715 1.26289 403.865 1.30748C403.926 1.32532 403.906 1.35541 403.78 1.45491C403.781 1.52849 403.922 1.49501 403.969 1.44681C404.042 1.37751 403.9 1.35542 403.63 1.3938C403.441 1.42141 403.347 1.46074 403.395 1.49213C403.423 1.50857 403.551 1.5292 403.78 1.45491C404.373 1.36298 404.819 1.3451 405.264 1.32721C405.379 1.32235 405.514 1.30691 405.595 1.31567C405.886 1.35082 406.158 1.39354 406.442 1.43321C406.766 1.4232 407.07 1.39973 407.389 1.45732C407.836 1.53854 407.856 1.53097 408.289 1.51312C408.511 1.50342 408.734 1.49524 408.957 1.48705C409.18 1.47885 409.356 1.50083 409.553 1.53477C409.953 1.60411 409.986 1.604 410.248 1.50709C410.403 1.44805 410.51 1.4282 410.707 1.45463C411.357 1.54423 411.364 1.55021 411.918 1.52148C412.377 1.49754 412.809 1.4902 413.149 1.57475C413.38 1.63411 413.454 1.62037 413.635 1.55674C414.118 1.38857 414.341 1.39088 415.256 1.5082C415.683 1.56395 416.121 1.50104 416.553 1.4922C416.918 1.48507 417.176 1.52032 417.204 1.61483C417.226 1.67333 417.287 1.7152 417.531 1.73397C417.626 1.74119 417.741 1.75134 417.835 1.74805C418.396 1.7283 418.95 1.70557 419.51 1.68283C419.794 1.67144 419.948 1.6004 419.892 1.50747C419.829 1.40855 419.937 1.37216 420.342 1.34238C420.585 1.32512 420.781 1.32753 420.977 1.35396C421.194 1.38332 421.134 1.41054 420.946 1.46518C420.495 1.59871 420.551 1.67962 421.134 1.76943C421.337 1.80034 421.5 1.82839 421.548 1.87479C421.575 1.89873 421.549 1.93035 421.61 1.94818C421.943 2.04777 422.404 2.11093 422.918 2.15741C423.411 2.11534 423.75 2.18186 424.129 2.23476C424.428 2.27589 424.778 2.23878 425.096 2.22279C425.453 2.20517 425.751 2.21626 426.009 2.27103C426.192 2.30951 426.381 2.32694 426.604 2.31875C427.05 2.30086 427.503 2.28896 427.941 2.26358C428.319 2.24139 428.604 2.27056 428.841 2.32088C429.14 2.38454 429.47 2.33996 429.781 2.34802C430.201 2.35724 430.413 2.49024 430.959 2.45251C431.283 2.43049 431.621 2.42195 431.959 2.4149C432.047 2.41313 432.155 2.43833 432.23 2.45612C432.589 2.53761 433.008 2.53181 433.467 2.50637C433.785 2.48888 434.095 2.47291 434.407 2.52902C434.923 2.62354 435.492 2.70589 436.034 2.79282C436.11 2.86167 436.057 2.9429 436.443 2.98226C436.646 3.00266 436.836 3.03363 436.992 3.06768C437.182 3.10765 437.358 3.11762 437.601 3.10636C438.04 3.08399 438.499 3.07805 438.931 3.04969C439.33 3.02444 439.58 3.07324 439.825 3.11904C440.021 3.15598 440.204 3.17343 440.44 3.14567C440.683 3.1194 440.859 3.13537 441.056 3.17531C441.334 3.23002 441.354 3.22396 442.273 3.23765C442.368 3.23886 442.483 3.26102 442.538 3.28037C442.565 3.2908 442.505 3.32104 442.458 3.3362C442.397 3.3544 442.303 3.3757 442.215 3.38048C441.216 3.4226 440.209 3.46023 439.21 3.50235C439.109 3.50717 439.001 3.51802 438.927 3.53327C438.846 3.55004 438.745 3.57286 438.745 3.59388C438.746 3.6089 438.881 3.62651 438.976 3.63673C439.274 3.67035 439.624 3.61671 439.916 3.65486C440.112 3.67979 440.275 3.71532 440.471 3.73874C440.553 3.749 440.681 3.74711 440.782 3.7438C441.12 3.73225 441.451 3.71621 441.789 3.70616C441.883 3.70437 441.992 3.71906 442.08 3.7308C442.73 3.81891 442.73 3.8189 443.291 3.79765C443.514 3.78946 443.75 3.76621 443.959 3.77457C444.162 3.78296 444.339 3.82296 444.522 3.84793C444.901 3.90082 445.26 3.95227 445.289 4.06932C445.304 4.11432 445.527 4.15267 445.75 4.15499C445.967 4.15733 446.196 4.14012 446.419 4.13042C446.946 4.11078 446.946 4.11078 447.63 4.20028C447.82 4.22522 448.022 4.2276 448.265 4.21183C448.36 4.20554 448.475 4.2112 448.577 4.21839C448.908 4.2399 448.909 4.26842 448.693 4.32314C448.391 4.40367 448.418 4.4111 449.271 4.47605C449.595 4.50058 449.846 4.54786 450.117 4.58908C450.558 4.6553 450.551 4.65531 450.262 4.7448C450.195 4.76452 450.135 4.78574 450.067 4.80697C449.873 4.86614 449.718 4.92968 449.313 4.93693C448.867 4.94431 448.421 4.96972 447.976 4.98761C447.544 5.00546 447.429 5.04183 447.472 5.14382C447.521 5.26681 447.61 5.28005 448.387 5.27616C448.61 5.27548 448.806 5.28688 448.975 5.32691C448.895 5.37521 448.747 5.41321 448.531 5.42288C447.978 5.44711 447.417 5.46836 446.863 5.48959C446.418 5.50748 445.972 5.52536 445.526 5.54325C445.249 5.55461 445.075 5.63324 445.151 5.72011C445.192 5.76954 445.227 5.81899 445.262 5.86844C445.338 5.96731 445.48 5.99241 445.933 5.98651C446.048 5.98466 446.156 5.9723 446.264 5.97497C446.703 5.98413 446.915 6.10812 447.442 6.08097C447.881 6.0586 448.34 6.05268 448.772 6.02432C449.17 5.99907 449.394 6.05246 449.672 6.09215C449.767 6.10537 449.869 6.13357 449.95 6.13182C450.511 6.11358 451.071 6.09535 451.618 6.06514C451.875 6.05233 452.03 6.06086 452.234 6.09627C452.722 6.18187 452.735 6.17732 453.458 6.14807C453.985 6.12543 453.991 6.12841 454.669 6.21793C454.859 6.24287 455.061 6.24224 455.304 6.22948C455.622 6.21349 455.952 6.18845 456.284 6.20995C456.385 6.21565 456.514 6.23328 456.548 6.25269C456.569 6.26615 456.475 6.29947 456.394 6.31023C455.801 6.39015 455.104 6.37878 454.456 6.41231C454.254 6.42194 454.05 6.39403 453.881 6.35401C453.704 6.314 453.515 6.29807 453.285 6.30629C452.839 6.32418 452.387 6.33608 451.948 6.36145C451.57 6.38364 451.306 6.34991 451.041 6.30417C450.953 6.28943 450.851 6.2612 450.763 6.26297C449.764 6.29608 448.758 6.32922 447.765 6.37432C447.367 6.39357 447.136 6.34623 446.865 6.30652C446.77 6.29329 446.675 6.26505 446.587 6.26682C446.249 6.27387 445.918 6.2914 445.581 6.30445C444.352 6.35329 443.129 6.4021 441.9 6.44793C441.819 6.45118 441.717 6.41995 441.622 6.40673C441.439 6.38026 441.25 6.35531 441.06 6.33037C440.722 6.34342 440.391 6.35945 440.054 6.3695C439.811 6.37626 439.595 6.39796 439.562 6.45512C439.542 6.49272 439.766 6.52657 440.003 6.52284C440.232 6.51913 440.462 6.5004 440.651 6.51934C441.592 6.61255 441.592 6.61406 442.18 6.59273C442.693 6.57313 442.639 6.55827 443.093 6.63947C443.29 6.6749 443.466 6.6954 443.689 6.6857C444.243 6.66297 444.803 6.64022 445.364 6.62048C445.451 6.6172 445.566 6.63187 445.655 6.64361C446.318 6.73167 446.319 6.73467 446.866 6.71046C447.581 6.68123 447.608 6.67364 448.09 6.76376C448.422 6.82581 448.725 6.78133 449.043 6.77735C449.409 6.83479 449.809 6.88612 450.141 6.95118C450.534 7.02805 450.946 7.01326 451.392 6.98936C451.723 6.97183 452.047 6.96482 452.318 7.02556C452.576 7.08183 452.887 7.08689 453.238 7.07079C453.556 7.0563 453.88 7.02676 454.211 7.05878C454.299 7.06752 454.435 7.08964 454.428 7.10317C454.422 7.12421 454.335 7.15452 454.247 7.1638C453.626 7.22728 452.944 7.22787 452.289 7.25842C452.201 7.26319 452.086 7.24702 451.998 7.23528C451.808 7.20883 451.625 7.17787 451.442 7.1499C451.111 7.15993 450.773 7.16396 450.449 7.18298C450.2 7.19726 450.01 7.19636 449.827 7.16088C449.658 7.12837 449.474 7.08837 449.272 7.07849C449.069 7.0686 448.833 7.09185 448.61 7.10155C448.387 7.11124 448.13 7.10752 447.955 7.13209C447.779 7.15665 447.672 7.20955 447.558 7.25195C447.431 7.29889 447.255 7.31446 446.998 7.31975C446.762 7.32499 446.573 7.31956 446.396 7.27805C446.322 7.26026 446.22 7.24705 446.118 7.23535C446.023 7.22513 445.915 7.20894 445.827 7.21221C444.821 7.24985 443.822 7.29048 442.815 7.32962C442.316 7.34917 442.322 7.34914 441.28 7.26375C441.185 7.25653 441.07 7.24637 440.976 7.24967C440.415 7.26941 439.861 7.29214 439.301 7.31489C438.734 7.33766 438.74 7.33464 437.772 7.24301C437.596 7.22553 437.34 7.25035 437.13 7.24799C436.691 7.24183 436.472 7.11636 435.959 7.14197C435.52 7.16434 435.061 7.17026 434.622 7.19864C434.224 7.22389 433.993 7.17205 433.722 7.13234C433.627 7.11911 433.525 7.08939 433.444 7.09264C432.438 7.12877 431.438 7.16939 430.1 7.17801C429.769 7.17903 429.919 7.21011 430.135 7.21996C430.446 7.23552 430.547 7.20367 430.377 7.14413C430.255 7.10246 430.078 7.08196 429.937 7.09291C429.862 7.09914 429.768 7.12798 430.1 7.17801C430.453 7.23399 430.433 7.26558 430.494 7.28342C430.644 7.3265 430.854 7.34388 431.07 7.33721C431.408 7.32566 431.738 7.30962 432.076 7.29958C432.171 7.29628 432.286 7.30644 432.374 7.31818C433.119 7.409 433.126 7.41499 433.916 7.37652C434.166 7.36524 434.348 7.36467 434.545 7.3926C434.816 7.43081 435.013 7.49627 435.425 7.47398C435.972 7.44377 436.532 7.42554 437.093 7.40729C437.18 7.40402 437.276 7.43076 437.377 7.44246C437.655 7.47764 437.859 7.54459 438.271 7.51479C438.588 7.49129 438.932 7.48421 439.27 7.47867C439.358 7.47689 439.493 7.50051 439.534 7.51991C439.616 7.55419 439.516 7.59506 439.286 7.6243C439.192 7.6366 439.063 7.63399 438.955 7.63882C438.51 7.65671 438.064 7.6761 437.618 7.69098C437.382 7.69922 437.159 7.72244 437.133 7.77808C437.114 7.81569 437.358 7.84797 437.587 7.84426C437.925 7.83871 438.263 7.82566 438.587 7.80514C439.161 7.77034 439.661 7.77781 440.129 7.87097C440.461 7.93603 440.441 7.91207 440.796 8.1062C440.884 8.15549 441.148 8.15917 441.378 8.15546C441.932 8.14625 442.189 8.16799 442.142 8.21469C442.083 8.27193 441.887 8.29055 441.637 8.29882C441.191 8.31221 440.746 8.33311 440.3 8.351C440.192 8.35584 440.07 8.36521 439.969 8.36252C439.868 8.35983 439.773 8.34211 439.685 8.32886C439.495 8.30091 439.332 8.25786 439.129 8.24797C438.926 8.23808 438.69 8.26134 438.467 8.27103C438.244 8.27923 438.008 8.30248 437.805 8.29259C437.602 8.2827 437.432 8.23819 437.249 8.21172C437.161 8.19847 437.053 8.17777 436.965 8.17954C436.519 8.19293 436.074 8.21383 435.628 8.23022C435.081 8.25142 435.081 8.25142 434.417 8.16036C434.227 8.13392 434.031 8.13602 433.781 8.14881C433.241 8.1745 433.234 8.17 432.246 8.08594C432.151 8.07722 432.036 8.06707 431.942 8.07187C430.935 8.1095 429.936 8.15011 428.936 8.18923C428.079 8.2234 428.079 8.22342 427.609 8.37503C427.259 8.48723 427.253 8.48725 427.598 8.53724C427.876 8.57843 428.127 8.63923 428.432 8.66081C428.716 8.68096 429.066 8.61231 429.378 8.68043C429.534 8.71449 429.738 8.75141 429.934 8.75681C430.245 8.76337 430.575 8.71879 430.874 8.78395C431.023 8.81653 431.247 8.85039 431.436 8.85131C431.767 8.85329 432.104 8.82822 432.435 8.81669C432.537 8.81337 432.652 8.81302 432.746 8.82024C432.848 8.82894 432.936 8.84669 433.024 8.86144C433.295 8.91166 433.586 8.93479 433.937 8.90818C434.511 8.86437 435.025 8.88381 435.473 8.97854C435.534 8.99187 435.683 8.99292 435.777 8.98662C436.02 8.97086 436.229 8.9687 436.412 8.99667C436.487 9.00846 436.596 9.02914 436.582 9.0427C436.562 9.06528 436.482 9.09557 436.394 9.10335C435.76 9.15635 435.077 9.16447 434.422 9.19351C434.335 9.19679 434.226 9.17759 434.138 9.16435C433.948 9.1379 433.785 9.09336 433.582 9.08347C433.38 9.07358 433.143 9.09383 432.921 9.10203C432.698 9.11022 432.462 9.13347 432.259 9.12509C432.056 9.1152 431.866 9.07824 431.703 9.0457C431.513 9.00874 431.331 9.00481 431.081 9.02059C430.757 9.04111 430.419 9.04515 430.088 9.05668C429.905 9.02871 429.722 8.99773 429.532 8.97128C429.444 8.95804 429.336 8.94186 429.241 8.94365C428.795 8.95704 428.35 8.97642 427.904 8.99431C427.458 9.0122 427.458 9.01221 426.7 8.92144C426.612 8.9112 426.496 8.89954 426.402 8.90284C425.841 8.92258 425.288 8.94679 424.727 8.96654C424.511 8.97471 424.315 8.95429 424.138 8.91429C423.969 8.87427 423.765 8.85237 423.556 8.86052C422.665 8.8948 421.773 8.92758 420.882 8.96786C420.524 8.98398 420.219 8.97141 419.975 8.9181C419.69 8.85741 419.373 8.8734 419.042 8.88643C418.293 8.91877 418.286 8.91728 417.804 8.84218C417.71 8.82745 417.614 8.79921 417.527 8.80098C416.75 8.82589 415.966 8.84933 415.197 8.88774C414.792 8.90851 414.574 8.85662 414.303 8.81841C414.208 8.80519 414.107 8.77697 414.026 8.78022C413.465 8.79846 412.904 8.81521 412.357 8.84693C411.811 8.87864 411.599 8.73964 411.186 8.74241C410.625 8.74564 410.072 8.78188 409.518 8.80461C409.073 8.8225 408.627 8.84038 408.181 8.85827C407.735 8.87616 407.29 8.89104 406.844 8.91193C406.608 8.92317 406.432 8.91019 406.235 8.87326C405.984 8.82447 405.686 8.78636 405.415 8.74215C405.002 8.67884 405.002 8.67884 404.502 8.69839C404.394 8.70323 404.279 8.70658 404.171 8.71142C403.354 8.74697 403.354 8.74398 402.311 8.65258C402.264 8.64822 402.143 8.66511 402.095 8.67727C401.954 8.71675 401.827 8.75918 401.699 8.80012C401.516 8.77666 401.293 8.76383 401.171 8.72967C400.824 8.63312 400.286 8.76843 399.933 8.6734C399.804 8.63776 399.58 8.60691 399.377 8.59852C399.168 8.59016 398.932 8.61191 398.715 8.62159C398.155 8.64584 398.155 8.64434 397.678 8.77946C397.435 8.84628 397.084 8.83534 396.767 8.85133C396.436 8.86887 396.118 8.87886 395.84 8.81815C395.589 8.76335 395.285 8.75078 394.927 8.7699C394.488 8.79378 394.036 8.80868 393.59 8.82356C393.495 8.82686 393.38 8.81971 393.285 8.81099C392.25 8.72558 392.25 8.72408 391.75 8.74514C391.527 8.75483 391.297 8.75853 391.081 8.77271C390.717 8.79786 390.439 8.76718 390.175 8.71994C390.087 8.70519 389.985 8.67699 389.897 8.67876C389.451 8.68764 389.012 8.7025 388.573 8.71737C388.236 8.72892 387.898 8.73597 387.574 8.75799C387.034 8.79419 386.768 8.69738 386.396 8.65347C385.842 8.6747 385.282 8.68994 384.728 8.71868C384.471 8.73148 384.302 8.7275 384.106 8.69207C383.855 8.64779 383.624 8.59744 383.219 8.62121C382.679 8.65291 382.112 8.66517 381.558 8.68489C381.185 8.63949 380.913 8.5457 380.38 8.58188C380.056 8.6039 379.711 8.60947 379.381 8.6225C378.935 8.64039 378.489 8.65679 378.043 8.67618C377.564 8.69568 377.571 8.69115 376.832 8.60482C376.406 8.55358 375.967 8.61349 375.535 8.62383C375.197 8.63237 375.03 8.70196 375.112 8.79031C375.195 8.87866 375.014 8.94829 374.703 8.96126C373.927 8.99218 373.143 9.02462 372.367 9.05254C372.272 9.05583 372.157 9.04567 372.069 9.03543C371.236 8.94339 371.236 8.9449 370.865 8.95956C370.311 8.98379 369.744 8.99754 369.197 9.02775C368.819 9.04844 368.541 9.01777 368.297 8.96746C368.107 8.929 367.931 8.92053 367.688 8.93029C365.014 9.03913 362.339 9.14046 359.672 9.25228C359.273 9.26853 359.043 9.22569 358.772 9.18598C358.677 9.17275 358.589 9.14449 358.494 9.14478C358.271 9.14547 358.048 9.15967 357.825 9.16937C356.826 9.20848 355.827 9.2551 354.82 9.28523C354.395 9.29855 354.281 9.36799 354.1 9.42561C353.958 9.46959 353.797 9.4881 353.547 9.49488C353.304 9.50163 353.128 9.49466 352.938 9.4562C352.694 9.40589 352.416 9.37521 352.038 9.3974C351.599 9.42277 351.153 9.43467 350.701 9.45258C350.471 9.46079 350.296 9.48836 350.223 9.54265C350.209 9.5517 350.352 9.57379 350.433 9.58706C350.704 9.63127 350.962 9.68304 351.267 9.71364C351.578 9.74421 351.915 9.70712 352.239 9.69712C352.354 9.69376 352.462 9.68442 352.57 9.68559C352.672 9.68678 352.794 9.69392 352.868 9.70721C353.221 9.7737 353.593 9.8191 354.079 9.77706C354.498 9.79529 354.717 9.91926 355.25 9.88458C355.574 9.86407 355.912 9.85402 356.25 9.84547C356.338 9.8437 356.433 9.87044 356.528 9.88366C356.799 9.92037 357.016 9.97977 357.421 9.95299C357.853 9.92463 358.312 9.91872 358.751 9.89634C358.994 9.88358 359.17 9.89355 359.36 9.93201C359.604 9.98082 359.882 10.0175 360.26 9.9923C360.584 9.97028 360.929 9.96472 361.259 9.95018C361.692 9.93234 361.692 9.93384 362.464 10.0246C362.552 10.0348 362.667 10.0465 362.761 10.0432C363.322 10.0234 363.876 9.9992 364.436 9.97946C364.652 9.97128 364.862 9.99016 365.012 10.0332C365.073 10.0511 365.053 10.0812 365.074 10.1067C363.96 10.1506 362.845 10.1886 361.738 10.2416C361.319 10.2624 361.129 10.2014 360.851 10.1677C360.756 10.156 360.655 10.1308 360.567 10.134C359.783 10.162 359.007 10.1914 358.23 10.2268C357.987 10.2381 357.805 10.2326 357.621 10.1896C357.153 10.0754 356.586 10.1403 356.06 10.1584C355.654 10.1717 355.527 10.2186 355.576 10.3176C355.639 10.4345 355.883 10.4698 356.504 10.4469C356.727 10.4387 356.95 10.4275 357.173 10.4208C357.389 10.4141 357.585 10.433 357.762 10.473C357.931 10.5131 358.134 10.5335 358.344 10.5268C358.79 10.5119 359.242 10.497 359.674 10.4732C360.032 10.454 360.33 10.4681 360.581 10.5229C360.859 10.5836 361.183 10.5691 361.507 10.5546C362.264 10.5222 362.27 10.5237 362.745 10.5974C362.84 10.6121 362.935 10.6403 363.023 10.6386C363.799 10.6136 364.583 10.5917 365.346 10.5533C365.744 10.5341 365.975 10.5814 366.239 10.6196C366.334 10.6329 366.429 10.6626 366.517 10.6593C367.077 10.6411 367.638 10.6229 368.185 10.5926C368.441 10.5783 368.597 10.5869 368.807 10.6223C369.309 10.7093 369.322 10.7063 370.031 10.6756C370.247 10.6659 370.484 10.6486 370.687 10.66C370.89 10.6714 371.053 10.7145 371.242 10.7409C371.33 10.7527 371.439 10.7688 371.533 10.7655C371.979 10.7522 372.425 10.7328 372.871 10.7149C373.289 10.6971 373.289 10.6986 374.075 10.7893C374.393 10.8273 374.724 10.7933 375.041 10.7803C375.386 10.7657 375.696 10.7648 375.961 10.8225C376.226 10.8803 376.543 10.8763 376.881 10.8632C377.198 10.8502 377.522 10.8162 377.847 10.8558C378.592 10.9466 378.592 10.9481 379.051 10.9286C379.72 10.901 380.382 10.875 381.057 10.8504C381.145 10.8471 381.26 10.8648 381.348 10.8765C381.538 10.903 381.701 10.9475 381.904 10.9574C382.107 10.9688 382.343 10.95 382.559 10.9404C383.255 10.9097 383.302 10.899 383.77 10.9967C384.163 11.0766 384.648 10.958 385.014 11.0499C385.225 11.1019 385.509 11.143 385.901 11.1163C386.225 11.0943 386.563 11.0872 386.9 11.0742C387.434 11.053 387.434 11.0545 388.111 11.1425C388.199 11.1543 388.314 11.1689 388.402 11.1657C388.848 11.1523 389.301 11.1404 389.733 11.112C390.239 11.0789 390.564 11.135 390.944 11.1894C391.242 11.232 391.593 11.1949 391.91 11.1789C392.254 11.1628 392.565 11.1664 392.823 11.2241C393.095 11.2834 393.412 11.2749 393.75 11.2618C394.067 11.2503 394.391 11.2148 394.716 11.2559C395.414 11.3468 395.414 11.3468 395.92 11.3272C396.366 11.3093 396.812 11.29 397.258 11.2766C397.345 11.2733 397.454 11.2925 397.542 11.3057C397.732 11.3322 397.895 11.3767 398.098 11.3866C398.3 11.3965 398.537 11.3763 398.759 11.3681C398.982 11.3599 399.218 11.3366 399.421 11.345C399.624 11.3534 399.814 11.3904 399.977 11.4229C400.167 11.4613 400.343 11.4653 400.599 11.4495C400.923 11.429 401.261 11.4234 401.592 11.4119C401.775 11.4399 401.965 11.4678 402.141 11.4988C402.324 11.5313 402.52 11.5277 402.77 11.5164C403.6 11.4778 403.607 11.4823 404.305 11.5733C404.623 11.6143 404.954 11.5788 405.271 11.5673C405.609 11.5542 405.926 11.5472 406.191 11.6065C406.449 11.6628 406.767 11.6693 407.104 11.6502C407.32 11.6376 407.55 11.6294 407.773 11.6242C407.874 11.6223 407.996 11.628 408.07 11.6398C408.43 11.7017 408.782 11.7577 409.275 11.7157C409.708 11.7263 409.926 11.8488 410.446 11.8232C410.885 11.8008 411.344 11.7949 411.776 11.7665C412.175 11.7413 412.459 11.7824 412.663 11.8344C413.03 11.9263 413.541 11.7986 413.907 11.8891C414.118 11.941 414.389 11.9822 414.794 11.9585C415.239 11.9331 415.382 11.9642 415.512 12.0584C415.588 12.1122 415.575 12.1558 415.441 12.1982C415.306 12.2422 415.157 12.2352 414.94 12.1863C414.689 12.1315 414.392 12.1219 414.034 12.135C413.682 12.1481 413.465 12.0707 413.174 12.0415C412.882 12.0109 412.539 12.0645 412.234 12.0249C411.516 11.9325 411.516 11.9325 411.03 11.952C410.699 11.9651 410.354 11.9721 410.03 11.9941C409.646 12.0209 409.395 11.9751 409.13 11.9338C409.035 11.9191 408.94 11.8909 408.859 11.8926C408.082 11.9175 407.299 11.941 406.529 11.9809C406.124 12.0017 405.907 11.9483 405.636 11.9116C405.541 11.8983 405.439 11.8716 405.358 11.8749C404.689 11.8979 404.028 11.927 403.359 11.9546C403.232 11.9955 403.09 12.035 402.969 12.0789C402.842 12.1244 402.667 12.1444 402.41 12.1437C401.984 12.145 401.566 12.2094 401.139 12.1311C400.698 12.0514 400.665 12.056 400.239 12.0768C399.699 12.104 399.124 12.0998 398.619 12.1599C398.531 12.1707 398.437 12.1995 398.437 12.2205C398.431 12.234 398.573 12.2531 398.661 12.2649C398.959 12.3 399.303 12.2464 399.601 12.283C399.797 12.3064 399.96 12.342 400.157 12.3669C400.238 12.3772 400.36 12.3753 400.468 12.3735C400.582 12.3716 400.69 12.3608 400.799 12.3619C400.9 12.3631 401.008 12.3718 401.09 12.385C401.462 12.441 401.855 12.4923 402.188 12.5589C402.513 12.624 402.816 12.578 403.141 12.574C404.44 12.6751 404.44 12.6766 405.312 12.6409C405.528 12.6327 405.75 12.623 405.973 12.6238C406.068 12.6235 406.156 12.6503 406.251 12.665C406.522 12.7092 406.78 12.749 407.158 12.7238C407.482 12.7018 407.827 12.6962 408.157 12.6817C408.603 12.6638 408.603 12.6638 409.362 12.7561C409.551 12.7795 409.754 12.7759 409.997 12.7631C410.206 12.752 410.423 12.7738 410.572 12.8169C410.634 12.8347 410.614 12.8648 410.635 12.8903C409.966 12.9164 409.291 12.935 408.643 12.973C408.224 12.9968 408.034 12.9328 407.756 12.8992C407.661 12.8874 407.559 12.8622 407.471 12.8655C406.81 12.8901 406.148 12.9176 405.486 12.9497C405.405 12.9529 405.304 12.9878 405.298 13.0088C405.285 13.0479 405.455 13.0849 405.698 13.0827C406.022 13.0802 406.34 13.0537 406.631 13.1143C406.876 13.1677 407.18 13.1908 407.538 13.1656C407.754 13.1515 407.984 13.1507 408.2 13.1381C408.773 13.1003 409.294 13.1062 409.728 13.2069C410.06 13.2329 410.384 13.2064 410.701 13.1919C410.937 13.1807 411.167 13.1695 411.336 13.1975C411.696 13.2564 412.048 13.3154 412.541 13.2734C413.076 13.3138 413.483 13.4011 413.93 13.4718C414.14 13.5057 414.303 13.5248 414.545 13.5015C414.647 13.4922 414.768 13.4918 414.876 13.4869C415.099 13.4787 415.335 13.4555 415.538 13.4639C415.741 13.4738 415.911 13.5168 416.094 13.5433C416.182 13.5565 416.284 13.5787 416.372 13.5769C416.709 13.5684 417.04 13.5524 417.371 13.5393C417.702 13.5278 418.033 13.5163 418.364 13.5047C418.642 13.5429 418.926 13.5811 419.204 13.6193C419.65 13.6014 420.095 13.5835 420.534 13.5671C421.027 13.5476 421.027 13.5491 421.739 13.64C422.057 13.6811 422.395 13.653 422.698 13.6326C423.204 13.5995 423.543 13.6555 423.903 13.7145C423.977 13.7262 424.113 13.7333 424.2 13.7271C424.551 13.705 424.856 13.7205 425.113 13.7753C425.297 13.8138 425.479 13.8313 425.702 13.8231C426.479 13.7921 427.256 13.7597 428.032 13.7318C428.127 13.7285 428.235 13.7417 428.323 13.7534C429.014 13.8429 429.021 13.8474 429.527 13.8218C429.98 13.7994 430.399 13.7891 430.758 13.8706C430.833 13.8884 430.948 13.9135 431.029 13.9118C431.583 13.8951 432.144 13.8768 432.691 13.8496C432.941 13.8368 433.116 13.8408 433.313 13.8747C433.564 13.9175 433.788 13.9694 434.2 13.9486C435.341 13.8895 435.348 13.8985 436.701 13.9979C436.796 14.0052 436.924 13.9928 437.032 13.9864C437.261 13.9707 437.431 13.9912 437.634 14.0251C438.088 14.1018 438.102 14.0973 438.534 14.0794C438.865 14.0649 439.209 14.0608 439.533 14.0373C440.033 14.0027 440.365 14.0603 440.738 14.1147C441.036 14.1573 441.38 14.1202 441.697 14.1057C442.042 14.0896 442.353 14.0932 442.61 14.1495C442.787 14.188 442.976 14.2084 443.199 14.2002C443.976 14.1708 444.753 14.1384 445.529 14.1089C445.624 14.1056 445.739 14.1173 445.827 14.1276C446.599 14.2183 446.599 14.2228 447.362 14.1859C447.605 14.1746 447.808 14.171 447.991 14.202C448.167 14.2315 448.357 14.2594 448.54 14.2874C448.871 14.2759 449.209 14.2718 449.533 14.2528C449.782 14.2385 449.958 14.244 450.155 14.2749C450.412 14.3147 450.63 14.3846 451.035 14.3488C451.244 14.3316 451.487 14.3354 451.697 14.3197C451.946 14.2994 452.115 14.3109 452.312 14.3494C452.556 14.3952 452.807 14.4425 453.199 14.4172C453.631 14.3889 454.09 14.3829 454.529 14.3606C454.772 14.3478 454.941 14.3593 455.138 14.3977C455.382 14.4465 455.66 14.4772 456.038 14.4566C456.808 14.4166 456.814 14.4241 457.566 14.5164C457.756 14.5399 457.959 14.5362 458.202 14.5235C458.411 14.5123 458.628 14.5342 458.777 14.5773C458.92 14.6249 458.907 14.6549 458.921 14.6804ZM398.452 1.32263C398.229 1.33083 398.006 1.34052 397.679 1.21088C397.659 1.18842 397.672 1.16135 397.624 1.14198C397.515 1.10177 397.346 1.07376 397.143 1.06988C396.778 1.06499 396.34 1.11739 396.347 1.15641C396.354 1.18943 396.47 1.2176 396.693 1.24394C396.788 1.25416 396.863 1.27195 396.951 1.2837C397.208 1.31744 397.412 1.3844 397.783 1.34872C397.714 1.25583 397.749 1.30228 397.783 1.34872C397.751 1.40589 397.853 1.44612 398.096 1.46189C398.164 1.46619 398.265 1.46287 398.319 1.45369C398.528 1.42001 398.561 1.37487 398.403 1.25672C398.377 1.27632 398.398 1.31078 398.459 1.31961C398.52 1.32843 398.668 1.32047 398.742 1.30973C398.931 1.28062 399.025 1.24279 398.977 1.2114C398.95 1.19496 398.821 1.17434 398.74 1.17459C398.598 1.17502 398.47 1.20845 398.452 1.32263ZM453.417 18.5688C452.925 18.5988 452.357 18.59 451.865 18.6501C451.777 18.6609 451.69 18.6882 451.683 18.7092C451.677 18.7228 451.812 18.7419 451.894 18.7522C452.076 18.7756 452.279 18.7675 452.515 18.7592C452.873 18.7476 453.084 18.8161 453.362 18.8497C453.45 18.86 453.565 18.8671 453.659 18.8638C454.206 18.8441 454.747 18.823 455.294 18.8003C455.388 18.7955 455.489 18.7846 455.57 18.7709C455.84 18.7265 455.812 18.698 455.548 18.6658C455.257 18.6307 455.026 18.5713 454.728 18.5437C454.302 18.5045 453.87 18.5599 453.417 18.5688ZM415.061 19.783C414.73 19.796 414.405 19.809 414.074 19.8221C413.966 19.8269 413.852 19.8288 413.75 19.8351C413.541 19.8462 413.386 19.8782 413.286 19.9281C413.442 19.9667 413.632 19.9886 413.841 19.9835C414.172 19.9734 414.496 19.9529 414.827 19.9474C415.185 19.9403 415.396 20.0072 415.673 20.0409C415.762 20.0511 415.87 20.0523 415.971 20.0535C416.471 20.058 416.774 19.979 416.677 19.8696C416.608 19.7842 416.35 19.734 416.04 19.7455C415.716 19.757 415.385 19.77 415.061 19.783ZM455.688 16.3423C455.768 16.3165 455.856 16.2982 455.896 16.2755C456.016 16.1986 455.968 16.1417 455.743 16.0823C455.472 16.0095 455.142 16.0601 454.838 16.0686C454.763 16.0703 454.683 16.1021 454.643 16.1217C454.616 16.1353 454.616 16.1639 454.657 16.1712C454.989 16.2303 455.342 16.2847 455.688 16.3423ZM396.982 12.0868C396.658 12.0999 396.327 12.1099 396.003 12.1274C395.922 12.1322 395.848 12.1609 395.801 12.1806C395.714 12.2169 395.809 12.2661 396.086 12.2698C396.404 12.2748 396.735 12.2483 397.066 12.2353C397.484 12.2189 397.733 12.1626 397.577 12.115C397.428 12.0689 397.225 12.0606 396.982 12.0868ZM41.2015 9.97223C41.4176 9.96406 41.6405 9.95736 41.8565 9.94619C42.0591 9.93505 42.214 9.90154 42.3145 9.85167C42.1448 9.81315 41.9551 9.79271 41.7457 9.79786C41.4148 9.80789 41.0906 9.8209 40.7666 9.83691C40.564 9.84655 40.3687 9.88018 40.3223 9.93138C40.2757 9.97057 40.7288 9.99171 41.2015 9.97223ZM368.34 8.73456C368.428 8.7478 368.516 8.77456 368.604 8.77429C368.82 8.77363 369.043 8.76393 369.246 8.74829C369.333 8.74201 369.4 8.71478 369.44 8.69363C369.467 8.68003 369.46 8.65603 369.419 8.64414C369.222 8.57267 368.439 8.60061 368.312 8.68359C368.299 8.69865 368.333 8.71806 368.34 8.73456ZM346.867 0.577305C346.887 0.601268 346.895 0.62527 346.922 0.649213C346.977 0.694095 347.126 0.72668 347.343 0.748539C347.511 0.710479 347.598 0.66817 347.591 0.623142C347.584 0.599137 347.563 0.575158 347.535 0.551215C347.48 0.506333 347.331 0.473767 347.115 0.451908C346.946 0.488466 346.866 0.530754 346.867 0.577305ZM471.371 19.8711C471.31 19.8908 471.25 19.9105 471.183 19.9287C471.366 19.9717 471.535 19.9847 471.663 19.9603C471.744 19.945 471.791 19.9223 471.851 19.9026C471.668 19.8596 471.506 19.8481 471.371 19.8711ZM467.171 20.0882C467.259 20.1015 467.341 20.1192 467.436 20.1279C467.591 20.1425 467.733 20.1165 467.84 20.0621C467.752 20.0489 467.67 20.0311 467.576 20.0224C467.42 20.0078 467.278 20.0338 467.171 20.0882ZM469.829 19.8052C469.782 19.8414 469.877 19.8712 470.128 19.8959C470.188 19.8762 470.269 19.8579 470.309 19.8368C470.376 19.802 470.261 19.7709 470.017 19.7476C469.95 19.7658 469.889 19.7855 469.829 19.8052ZM455.533 18.2304C455.487 18.2666 455.582 18.2963 455.832 18.3211C455.893 18.3013 455.973 18.2831 456.014 18.2619C456.081 18.2272 455.965 18.196 455.721 18.1727C455.654 18.191 455.594 18.2107 455.533 18.2304ZM435.901 7.66474C435.841 7.68444 435.78 7.70415 435.713 7.72238C435.896 7.76537 436.065 7.77836 436.193 7.75394C436.274 7.73867 436.321 7.716 436.382 7.69629C436.198 7.65331 436.036 7.6418 435.901 7.66474ZM417.179 2.08494C417.342 2.09496 417.476 2.07353 417.59 2.01761C417.502 2.00437 417.421 1.9866 417.326 1.97788C417.17 1.96334 417.029 1.98931 416.922 2.0437C417.01 2.05845 417.098 2.07168 417.179 2.08494ZM407.286 1.76248C407.226 1.78219 407.165 1.8019 407.098 1.82013C407.281 1.86311 407.45 1.8761 407.578 1.85168C407.659 1.83642 407.706 1.81375 407.767 1.79404C407.583 1.75105 407.421 1.74104 407.286 1.76248ZM340.217 0.596258C340.157 0.615966 340.096 0.635675 340.029 0.653902C340.212 0.696888 340.381 0.709878 340.509 0.685458C340.59 0.670192 340.637 0.647521 340.698 0.627813C340.514 0.584828 340.352 0.57482 340.217 0.596258ZM6.61741 13.8404C6.52931 13.8271 6.44129 13.8139 6.35992 13.7991C6.16469 13.8403 6.10459 13.878 6.21324 13.9062C6.28115 13.924 6.38263 13.9342 6.47073 13.9475C6.67272 13.9063 6.71933 13.8701 6.61741 13.8404Z" fill="#FFE492"/>
</svg>
